<svg width="24" height="24" viewBox="0 0 24 24" fill="none" xmlns="http://www.w3.org/2000/svg">
<path fill-rule="evenodd" clip-rule="evenodd" d="M18.6549 13.7534C18.336 13.9561 17.9657 13.9764 17.6777 13.8142C17.3177 13.6115 17.112 13.1453 17.112 12.4865V10.5304C17.112 9.5777 16.7314 8.90878 16.0937 8.72635C15.0137 8.41216 14.2011 9.71959 13.9029 10.2061L12 13.2466V9.52703C11.9794 8.67568 11.6914 8.15878 11.1566 8.00676C10.8069 7.90541 10.272 7.94595 9.75771 8.71622L5.49943 15.4662C4.93371 14.402 4.63543 13.2061 4.63543 12C4.63543 7.93581 7.93714 4.63176 12 4.63176C16.0629 4.63176 19.3646 7.93581 19.3646 12C19.3646 12.0101 19.3646 12.0101 19.3646 12.0203C19.3646 12.0304 19.3646 12.0304 19.3646 12.0405C19.3954 12.8311 19.1383 13.4493 18.6549 13.7534ZM21 12V11.9797V11.9595C20.9691 7.01351 16.9474 3 12 3C7.032 3 3 7.03378 3 12C3 16.9662 7.032 21 12 21C14.2731 21 16.4537 20.1486 18.12 18.598C18.4491 18.2939 18.4697 17.777 18.1611 17.4426C17.8629 17.1182 17.3486 17.0878 17.0194 17.3919L17.0091 17.402C15.6617 18.6588 13.8617 19.3682 12 19.3682C9.82971 19.3682 7.87543 18.4155 6.51771 16.9155L10.3646 10.8345V13.6419C10.3646 14.9899 10.8994 15.4257 11.3417 15.5473C11.784 15.6791 12.4629 15.5878 13.1829 14.4426L15.2914 11.0676C15.3634 10.9561 15.4251 10.8649 15.4766 10.7838V12.4865C15.4766 13.7432 15.9909 14.7466 16.8754 15.2432C17.6777 15.6892 18.6857 15.6486 19.5086 15.1419C20.5166 14.5236 21.0514 13.3784 21 12Z"/>
</svg>
