<svg width="16" height="18" viewBox="-1 0 18 18" fill="none" xmlns="http://www.w3.org/2000/svg">
<path fill-rule="evenodd" clip-rule="evenodd" d="M1.845 0H13.905C14.922 0 15.75 0.828 15.75 1.854V18L13.815 16.29L12.726 15.282L11.574 14.211L12.051 15.876H1.845C0.828 15.876 0 15.048 0 14.022V1.854C0 0.828 0.828 0 1.845 0ZM9.837 11.025C10.107 11.367 10.431 11.754 10.431 11.754C12.42 11.691 13.185 10.386 13.185 10.386C13.185 7.488 11.889 5.139 11.889 5.139C10.593 4.167 9.36 4.194 9.36 4.194L9.234 4.338C10.764 4.806 11.475 5.481 11.475 5.481C10.539 4.968 9.621 4.716 8.766 4.617C8.118 4.545 7.497 4.563 6.948 4.635C6.90086 4.635 6.86058 4.64186 6.81518 4.64959C6.80857 4.65071 6.80186 4.65186 6.795 4.653C6.48 4.68 5.715 4.797 4.752 5.22C4.419 5.373 4.221 5.481 4.221 5.481C4.221 5.481 4.968 4.77 6.588 4.302L6.498 4.194C6.498 4.194 5.265 4.167 3.969 5.139C3.969 5.139 2.673 7.488 2.673 10.386C2.673 10.386 3.429 11.691 5.418 11.754C5.418 11.754 5.751 11.349 6.021 11.007C4.878 10.665 4.446 9.945 4.446 9.945C4.446 9.945 4.536 10.008 4.698 10.098C4.707 10.107 4.716 10.116 4.734 10.125C4.7475 10.134 4.761 10.1408 4.7745 10.1475C4.788 10.1543 4.8015 10.161 4.815 10.17C5.04 10.296 5.265 10.395 5.472 10.476C5.841 10.62 6.282 10.764 6.795 10.863C7.47 10.989 8.262 11.034 9.126 10.872C9.549 10.8 9.981 10.674 10.431 10.485C10.746 10.368 11.097 10.197 11.466 9.954C11.466 9.954 11.016 10.692 9.837 11.025ZM5.32793 8.55C5.32793 8.001 5.73293 7.551 6.24593 7.551C6.75893 7.551 7.17293 8.001 7.16393 8.55C7.16393 9.099 6.75893 9.549 6.24593 9.549C5.74193 9.549 5.32793 9.099 5.32793 8.55ZM8.61293 8.55C8.61293 8.001 9.01793 7.551 9.53093 7.551C10.0439 7.551 10.4489 8.001 10.4489 8.55C10.4489 9.099 10.0439 9.549 9.53093 9.549C9.02693 9.549 8.61293 9.099 8.61293 8.55Z"/>
</svg>
