<svg width="24" height="24" viewBox="0 0 24 24" fill="none" xmlns="http://www.w3.org/2000/svg">
<path d="M21 12.0579C21 16.5676 17.7072 20.3144 13.4064 21V14.6749H15.5088L15.9024 12.0579H13.416V10.3584C13.416 9.64378 13.7616 8.93884 14.8752 8.93884H16.0176V6.71781C16.0176 6.71781 14.9808 6.54399 14.0016 6.54399C11.9472 6.54399 10.5936 7.79936 10.5936 10.059V12.0579H8.3088V14.6749H10.5936V21C6.2928 20.3047 3 16.5676 3 12.0579C3 7.05579 7.032 3 12.0048 3C16.9776 3 21 7.05579 21 12.0579Z"/>
<path d="M21 12.0579C21 16.5676 17.7072 20.3144 13.4064 21V14.6749H15.5088L15.9024 12.0579H13.416V10.3584C13.416 9.64378 13.7616 8.93884 14.8752 8.93884H16.0176V6.71781C16.0176 6.71781 14.9808 6.54399 14.0016 6.54399C11.9472 6.54399 10.5936 7.79936 10.5936 10.059V12.0579H8.3088V14.6749H10.5936V21C6.2928 20.3047 3 16.5676 3 12.0579C3 7.05579 7.032 3 12.0048 3C16.9776 3 21 7.05579 21 12.0579Z"/>
</svg>
