<svg width="24" height="24" viewBox="0 0 24 24" fill="none" xmlns="http://www.w3.org/2000/svg">
<path d="M13.8805 15.0704C13.4775 15.4736 12.614 15.6176 11.9999 15.6176C11.3858 15.6176 10.5223 15.4736 10.1193 15.0704C10.0233 14.9744 9.86981 14.9744 9.77387 15.0704C9.67792 15.1664 9.67792 15.32 9.77387 15.416C10.4167 16.0496 11.6353 16.0976 11.9999 16.0976C12.3645 16.0976 13.583 16.0496 14.2259 15.4064C14.3218 15.3104 14.3218 15.1568 14.2259 15.0608C14.1299 14.9744 13.9764 14.9744 13.8805 15.0704Z"/>
<path d="M10.8774 12.9307C10.8774 12.4126 10.4552 11.9904 9.93712 11.9904C9.419 11.9904 8.99683 12.4126 8.99683 12.9307C8.99683 13.4488 9.419 13.871 9.93712 13.871C10.4552 13.871 10.8774 13.4488 10.8774 12.9307Z"/>
<path d="M12 3C7.02985 3 3 7.02985 3 12C3 16.9701 7.02985 21 12 21C16.9701 21 21 16.9797 21 12C20.9904 7.02985 16.9701 3 12 3ZM17.2196 13.1994C17.2388 13.3241 17.2484 13.4584 17.2484 13.5928C17.2484 15.6173 14.8977 17.2484 12 17.2484C9.10235 17.2484 6.7516 15.6173 6.7516 13.5928C6.7516 13.4584 6.76119 13.3241 6.78038 13.1994C6.31983 12.9979 6.0032 12.5373 6.0032 12C6.0032 11.2804 6.58849 10.6855 7.3177 10.6855C7.67271 10.6855 7.98934 10.8198 8.22921 11.0501C9.14072 10.3881 10.3977 9.97548 11.7985 9.9371C11.7985 9.91791 12.4606 6.79957 12.4606 6.79957C12.4606 6.742 12.4989 6.68443 12.5469 6.65565C12.5949 6.61727 12.662 6.60768 12.7292 6.61727L14.9072 7.08742C15.0608 6.78038 15.3774 6.5597 15.742 6.5597C16.2601 6.5597 16.6823 6.97228 16.6823 7.5C16.6823 8.02772 16.2601 8.4403 15.742 8.4403C15.2431 8.4403 14.8305 8.04691 14.8113 7.54797L12.8539 7.1258L12.2591 9.9371C13.6407 9.98507 14.8785 10.4072 15.7708 11.0501C16.0107 10.8198 16.3273 10.6759 16.6823 10.6759C17.4115 10.6759 17.9968 11.2612 17.9968 11.9904C17.9968 12.5373 17.6706 12.9883 17.2196 13.1994Z"/>
<path d="M14.0629 12C13.5447 12 13.1226 12.4222 13.1226 12.9403C13.1226 13.4584 13.5447 13.8806 14.0629 13.8806C14.581 13.8806 15.0032 13.4584 15.0032 12.9403C14.9936 12.4222 14.5714 12 14.0629 12Z"/>
</svg>
