<svg width="24" height="24" viewBox="0 0 24 24" fill="none" xmlns="http://www.w3.org/2000/svg">
<path d="M8.65854 19.5C15.4488 19.5 19.1659 13.7338 19.1659 8.73717C19.1659 8.57728 19.1659 8.41739 19.1561 8.2475C19.878 7.71785 20.5024 7.0483 21 6.28881C20.3366 6.58861 19.6244 6.78847 18.8732 6.88841C19.6341 6.41872 20.2195 5.67921 20.5024 4.78981C19.7902 5.22951 19 5.53931 18.1512 5.70919C17.478 4.95969 16.522 4.5 15.4585 4.5C13.4195 4.5 11.761 6.19887 11.761 8.28747C11.761 8.58727 11.8 8.86709 11.8585 9.1469C8.79512 8.997 6.07317 7.47801 4.24878 5.18954C3.92683 5.75916 3.75122 6.40873 3.75122 7.09827C3.75122 8.40739 4.40488 9.56662 5.39024 10.2462C4.78537 10.2262 4.21951 10.0563 3.72195 9.77648C3.72195 9.78648 3.72195 9.80646 3.72195 9.82645C3.72195 11.6552 5 13.1942 6.67805 13.534C6.36585 13.6239 6.0439 13.6639 5.70244 13.6639C5.46829 13.6639 5.23415 13.6439 5.00976 13.5939C5.47805 15.1029 6.8439 16.1922 8.46341 16.2222C7.19512 17.2415 5.60488 17.8411 3.87805 17.8411C3.58537 17.8411 3.28293 17.8311 3 17.7911C4.62927 18.8704 6.57073 19.5 8.65854 19.5Z"/>
</svg>
