<svg width="24" height="24" viewBox="0 0 24 24" fill="none" xmlns="http://www.w3.org/2000/svg">
<path d="M12 3C7.02985 3 3 7.02985 3 12C3 16.9701 7.02985 21 12 21C16.9701 21 21 16.9701 21 12C21 7.02985 16.9606 3 12 3ZM17.5267 15.838H16.2217C15.7228 15.838 15.5789 15.435 14.6866 14.5426C13.9094 13.7942 13.5736 13.6887 13.3817 13.6887C13.113 13.6887 13.0362 13.7559 13.0362 14.1301V15.3102C13.0362 15.6269 12.9307 15.8188 12.0959 15.8188C10.7143 15.8188 9.1791 14.984 8.09488 13.42C6.46375 11.1365 6.02239 9.40938 6.02239 9.06397C6.02239 8.87207 6.08955 8.69936 6.46375 8.69936H7.78785C8.11407 8.69936 8.2484 8.84328 8.37313 9.20789C9.01599 11.0789 10.1002 12.71 10.5416 12.71C10.7047 12.71 10.7814 12.6333 10.7814 12.2111V10.2921C10.7335 9.39979 10.2633 9.32303 10.2633 9.0064C10.2633 8.85288 10.3881 8.69936 10.5896 8.69936H12.6429C12.9211 8.69936 13.0267 8.85288 13.0267 9.1791V11.7793C13.0267 12.0576 13.1418 12.1631 13.2281 12.1631C13.3913 12.1631 13.5352 12.0576 13.8422 11.7601C14.7825 10.7047 15.4542 9.08316 15.4542 9.08316C15.5405 8.89126 15.694 8.71855 16.0299 8.71855H17.3348C17.7281 8.71855 17.8145 8.92004 17.7281 9.19829C17.565 9.95629 15.9723 12.2015 15.9723 12.2207C15.8284 12.451 15.7804 12.5469 15.9723 12.806C16.1162 12.9979 16.5672 13.3913 16.8742 13.7463C17.4307 14.3795 17.8625 14.9168 17.9776 15.2815C18.0832 15.6461 17.9009 15.838 17.5267 15.838Z"/>
</svg>
