<svg width="24" height="24" viewBox="0 0 24 24" fill="none" xmlns="http://www.w3.org/2000/svg">
<path fill-rule="evenodd" clip-rule="evenodd" d="M16.8118 11.8431C16.0337 11.6967 16.4118 11.2919 16.4118 11.2919C16.4118 11.2919 17.173 10.0779 16.2609 9.19524C15.1309 8.1021 12.3851 9.33441 12.3851 9.33441C11.3364 9.64902 11.614 9.19063 11.7626 8.41008C11.7626 7.49044 11.4371 5.93419 8.64305 6.85325C5.85208 7.77758 3.45538 11.0157 3.45538 11.0157C1.78849 13.1676 2.00974 14.8306 2.00974 14.8306C2.42566 18.502 6.45724 19.5096 9.59354 19.7482C12.8925 19.9995 17.3454 18.6479 18.6956 15.8732C20.0459 13.0935 17.5928 11.9936 16.8118 11.8431ZM9.83807 18.7135C6.56303 18.8615 3.91516 17.2723 3.91516 15.1572C3.91516 13.0403 6.56291 11.3424 9.83807 11.1965C13.1155 11.0507 15.7686 12.3569 15.7686 14.47C15.7686 16.5846 13.1155 18.5697 9.83807 18.7135ZM9.18364 12.5907C5.88903 12.9637 6.26964 15.9493 6.26964 15.9493C6.26964 15.9493 6.23601 16.8951 7.15302 17.3766C9.08065 18.3863 11.0652 17.7746 12.0684 16.5221C13.0716 15.2688 12.4827 12.2202 9.18364 12.5907ZM8.35345 16.7814C7.738 16.8513 7.243 16.5074 7.243 16.0101C7.243 15.5141 7.68268 14.9951 8.29861 14.9332C9.00466 14.868 9.4645 15.2618 9.4645 15.7594C9.4645 16.2555 8.96623 16.7137 8.35345 16.7814ZM10.297 15.1808C10.0887 15.3313 9.83222 15.3105 9.72218 15.1296C9.60722 14.9535 9.65057 14.6711 9.86093 14.5227C10.1055 14.3471 10.3593 14.3976 10.4694 14.5737C10.5794 14.7545 10.5009 15.0255 10.297 15.1808ZM18.417 10.5507C18.6828 10.5507 18.9083 10.3605 18.9463 10.1125C18.9506 10.0943 18.9532 10.0781 18.9532 10.0572C19.3556 6.55703 15.9894 7.15932 15.9894 7.15932C15.6906 7.15932 15.451 7.39333 15.451 7.68507C15.451 7.97276 15.6906 8.20662 15.9894 8.20662C18.4073 7.6898 17.8737 10.0292 17.8737 10.0292C17.8737 10.3188 18.1177 10.5507 18.417 10.5507ZM18.0235 4.44145C16.8599 4.17786 15.6626 4.40496 15.3275 4.46702C15.3014 4.46961 15.2777 4.49302 15.2537 4.49775C15.2418 4.49988 15.2342 4.51181 15.2342 4.51181C14.9041 4.60201 14.6622 4.8984 14.6622 5.24803C14.6622 5.66531 15.0119 6.0082 15.4473 6.0082C15.4473 6.0082 15.8709 5.95302 16.1582 5.84458C16.4435 5.73366 18.8542 5.76182 20.0515 7.70723C20.7044 9.12702 20.3389 10.0774 20.2928 10.2301C20.2928 10.2301 20.1372 10.5989 20.1372 10.9625C20.1372 11.3815 20.4875 11.6451 20.9201 11.6451C21.2819 11.6451 21.586 11.5971 21.675 11.0053H21.6793C22.965 6.85957 20.1062 4.91146 18.0235 4.44145Z"/>
</svg>
