<svg width="24" height="24" viewBox="0 0 24 24" fill="none" xmlns="http://www.w3.org/2000/svg">
<path d="M20.6364 7.86934C20.4301 7.13462 19.8209 6.54871 19.0447 6.35341C17.6397 6 12.0098 6 12.0098 6C12.0098 6 6.37008 6 4.96506 6.35341C4.18886 6.55801 3.58952 7.13462 3.37336 7.86934C3 9.20856 3 11.9986 3 11.9986C3 11.9986 3 14.7887 3.37336 16.1279C3.57969 16.8719 4.18886 17.4485 4.96506 17.6438C6.37008 17.9972 12 17.9972 12 17.9972C12 17.9972 17.6299 17.9972 19.0349 17.6438C19.8013 17.4485 20.4203 16.8719 20.6266 16.1279C21 14.7887 21 11.9986 21 11.9986C21 11.9986 21.0098 9.20856 20.6364 7.86934ZM10.1627 14.5376V9.46897L14.869 11.9986L10.1627 14.5376Z"/>
</svg>
