<svg width="16" height="16" viewBox="0 0 16 16" xmlns="http://www.w3.org/2000/svg">
<path d="M7.99992 7.67288C9.91346 7.67288 11.4647 6.17911 11.4647 4.33644C11.4647 2.49378 9.91346 1 7.99992 1C6.08638 1 4.53516 2.49378 4.53516 4.33644C4.53516 6.17911 6.08638 7.67288 7.99992 7.67288Z"/>
<path d="M11.0889 9.00781H4.91107C2.75 9.00781 1.01174 10.6817 1 12.7627V15.7938H15V12.7627C14.9883 10.6817 13.25 9.00781 11.0889 9.00781ZM12.651 13.5318H3.34899V12.7627C3.36074 11.9371 4.05369 11.2698 4.91107 11.2698H11.0889C11.9463 11.2698 12.6393 11.9371 12.651 12.7627V13.5318Z"/>
</svg>
