<svg width="22" height="22" viewBox="0 0 22 22" xmlns="http://www.w3.org/2000/svg">
<path d="M11 1.25C16 1.25 20.75 6 20.75 11C20.75 16 16 20.75 11 20.75C6 20.75 1.25 16 1.25 11C1.25 6 6 1.25 11 1.25ZM11 0C4.9 0 0 4.9 0 11C0 17.1 4.9 22 11 22C17.1 22 22 17.1 22 11C22 4.9 17.1 0 11 0Z" />
<path d="M11 9.41294C12.6402 9.41294 13.9698 8.20123 13.9698 6.70651C13.9698 5.2118 12.6402 4.00009 11 4.00009C9.35984 4.00009 8.03021 5.2118 8.03021 6.70651C8.03021 8.20123 9.35984 9.41294 11 9.41294Z" />
<path d="M13.6477 10.4955H8.35235C6.5 10.4955 5.01007 11.8533 5 13.5414V16.0001H17V13.5414C16.9899 11.8533 15.5 10.4955 13.6477 10.4955ZM14.9866 14.1652H7.01342V13.5414C7.02349 12.8716 7.61745 12.3303 8.35235 12.3303H13.6477C14.3826 12.3303 14.9765 12.8716 14.9866 13.5414V14.1652Z" />
</svg>
