<svg width="14" height="14" viewBox="0 0 14 14" fill="none" xmlns="http://www.w3.org/2000/svg">
<path d="M5.67983 0.767722C5.67983 0.500468 5.50169 0.25943 5.22833 0.157031C4.95528 0.0546312 4.64061 0.111322 4.43134 0.300198L1.08315 3.32675C0.972284 3.42695 0.972284 3.5892 1.08315 3.6894L1.71628 4.26166C1.82714 4.36186 2.0068 4.36186 2.11751 4.26166L4.21736 2.36356L4.21736 13.7466C4.21736 13.8865 4.3428 14 4.4977 14H5.39964C5.55439 14 5.67998 13.8866 5.67998 13.7466L5.67983 0.767722ZM8.32002 0.25641V13.2321C8.32002 13.4994 8.49816 13.7404 8.77152 13.8428C9.04457 13.9452 9.35924 13.8885 9.56851 13.6997L12.9169 10.6731C13.0277 10.5729 13.0277 10.4107 12.9169 10.3105L12.2837 9.73821C12.1729 9.638 11.9932 9.638 11.8825 9.73821L9.78249 11.6363V0.25641C9.78249 0.114753 9.65538 -5.96046e-08 9.4988 -5.96046e-08H8.60386C8.44713 -5.96046e-08 8.32002 0.114753 8.32002 0.25641Z" fill="currentColor"/>
</svg>
