<svg width="16" height="16" viewBox="0 0 16 16" fill="none" xmlns="http://www.w3.org/2000/svg">
<path fill-rule="evenodd" clip-rule="evenodd" d="M8 16C8.33866 16 8.67241 15.979 9 15.9381V13.917C8.67479 13.9716 8.34071 14 8 14C4.68629 14 2 11.3137 2 8C2 4.68629 4.68629 2 8 2C11.3137 2 14 4.68629 14 8C14 8.34071 13.9716 8.67479 13.917 9H15.9381C15.979 8.67241 16 8.33866 16 8C16 3.58172 12.4183 0 8 0C3.58172 0 0 3.58172 0 8C0 12.4183 3.58172 16 8 16ZM8.24264 3.75736L4 8L8.24264 12.2426L12.4853 8L8.24264 3.75736ZM8.12132 5.87868L6 8L8.12132 10.1213L10.2426 8L8.12132 5.87868ZM11.4266 12.5685C11.4266 11.5167 12.2792 10.6641 13.331 10.6641C14.3828 10.6641 15.2355 11.5167 15.2355 12.5685H15.9973V15.9966H10.6648V12.5685H11.4266ZM14.0928 12.5685C14.0928 12.1478 13.7518 11.8067 13.331 11.8067C12.9103 11.8067 12.5693 12.1478 12.5693 12.5685H14.0928ZM11.8075 13.7112V14.8539H14.8546V13.7112H11.8075Z" />
</svg>
