<svg width="16" height="16" viewBox="0 0 16 16" fill="none" xmlns="http://www.w3.org/2000/svg">
<path fill-rule="evenodd" clip-rule="evenodd" d="M1.8 8L3.03975 6.76025H6.35163L7.76448 5.27389H9.47V3.99986H7.21953L5.80667 5.48622H4.31378L8 1.8L12.7137 6.51375H8.4872L7.07435 8.00011H1.80011L1.8 8ZM3.07414 9.27414L8 14.2L11.7228 10.4772H10.1626L8.74974 11.9635H6.49927V10.6895H8.20478L9.61764 9.20312H12.9969L14.2 8L13.9878 7.78777H9.03216L7.61931 9.27414H3.07414ZM14.5524 6.55238L16 8L8 16L0 8L8 0L14.5137 6.51375H14.5524V6.55238Z" fill="currentColor" />
</svg>
