<svg width="188" height="24" viewBox="0 0 188 24" xmlns="http://www.w3.org/2000/svg">
<path d="M134.799 18.802C130.921 18.802 128.037 15.8049 128.037 12.0117C128.037 8.26537 130.874 5.19805 134.894 5.19805C137.353 5.19805 138.819 6.04098 140.096 7.23512L138.606 8.94439C137.542 7.96098 136.407 7.30537 134.894 7.30537C132.34 7.30537 130.519 9.36585 130.519 11.9649C130.519 14.5639 132.364 16.6712 134.894 16.6712C136.525 16.6712 137.566 16.0156 138.701 14.962L140.19 16.4605C138.819 17.8888 137.305 18.802 134.799 18.802ZM144.564 13.0185V18.5678H142.224V5.40878H144.564V10.8878H150.901V5.40878H153.242V18.5678H150.901V13.0185H144.564ZM168.942 18.5678H166.483L165.112 15.3834H158.822L157.451 18.5678H155.063L160.903 5.31512H163.055L168.942 18.5678ZM161.967 8.07805L159.697 13.3463H164.261L161.967 8.07805ZM173.175 5.40878V18.5678H170.834V5.40878H173.175ZM185.706 5.40878H188V18.5678H186.037L178.708 9.20195V18.5678H176.414V5.40878H178.566L185.683 14.4937V5.40878H185.706ZM5.48559 11.9883L2.74282 14.7044L0 11.9883L2.74282 9.27219L5.48559 11.9883ZM12.1061 5.4322L16.7878 10.0683L19.5306 7.35219L12.1061 0L4.68169 7.35219L7.42451 10.0683L12.1061 5.4322ZM21.4695 9.29561L18.7267 12.0117L21.4695 14.7278L24.2123 12.0117L21.4695 9.29561ZM12.1061 18.5678L7.42451 13.9317L4.68169 16.6478L12.1061 24L19.5306 16.6478L16.7878 13.9317L12.1061 18.5678ZM12.1061 14.7044L14.849 11.9883L12.1061 9.27219L9.36337 11.9883L12.1061 14.7044ZM40.9528 14.962V14.9151C40.9528 13.159 40.007 12.2693 38.4701 11.6839C39.4159 11.1688 40.2199 10.3259 40.2199 8.85073V8.82732C40.2199 6.76683 38.5411 5.4322 35.8456 5.4322H29.6743V18.5678H35.9874C38.9903 18.5678 40.9528 17.3737 40.9528 14.962ZM37.3115 9.34244C37.3115 10.3259 36.5076 10.7239 35.2072 10.7239H32.5116V7.93756H35.3963C36.6258 7.93756 37.3115 8.42927 37.3115 9.29561V9.34244ZM38.0682 14.6107C38.0682 15.5941 37.2879 16.039 36.0111 16.039H32.5353V13.1356H35.9165C37.4061 13.1356 38.0682 13.6741 38.0682 14.5639V14.6107ZM47.0769 18.5678V5.4322H44.1449V18.5678H47.0769ZM62.777 18.5678V5.4322H59.8923V13.5102L53.6737 5.40878H50.9783V18.5444H53.8629V10.1854L60.2943 18.5444H62.777V18.5678ZM78.9501 18.5678L73.2517 5.33854H70.5562L64.8578 18.5678H67.837L69.0429 15.6176H74.6467L75.8526 18.5678H78.9501ZM73.6536 13.0654H70.1306L71.9039 8.8039L73.6536 13.0654ZM92.8769 18.5678V5.4322H89.9922V13.5102L83.7736 5.40878H81.0781V18.5444H83.9628V10.1854L90.3942 18.5444H92.8769V18.5678ZM107.962 16.4371L106.094 14.5873C105.054 15.5239 104.132 16.1327 102.595 16.1327C100.325 16.1327 98.7408 14.2595 98.7408 12.0117V11.9649C98.7408 9.71707 100.349 7.86732 102.595 7.86732C103.919 7.86732 104.959 8.42927 106 9.34244L107.868 7.21171C106.638 6.01756 105.149 5.17463 102.642 5.17463C98.5753 5.17463 95.7142 8.24195 95.7142 11.9649V12.0117C95.7142 15.7815 98.6226 18.7785 102.524 18.7785C105.078 18.802 106.591 17.8888 107.962 16.4371ZM120.399 18.5678V15.9922H113.188V13.2293H119.454V10.6537H113.188V7.98439H120.305V5.40878H110.303V18.5444H120.399V18.5678Z"/>
</svg>
