<svg width="90" height="24" viewBox="0 0 90 24" xmlns="http://www.w3.org/2000/svg">
<path d="M10.3793 2.70476L6.36444 5.02857L3.986 3.67619L10.3602 0L16.7344 3.67619L14.394 5.02857L10.3793 2.70476Z"/>
<path d="M14.4131 6.97143L16.7535 8.32381V11.0286L12.7386 13.3524V18L10.3983 19.3524L8.05787 18V13.3524L4.04309 11.0286V8.32381L6.38348 6.97143L10.3983 9.29524L14.4131 6.97143Z"/>
<path d="M16.7535 12.9714V15.6762L14.4131 17.0286V14.3238L16.7535 12.9714Z"/>
<path d="M14.4131 18.9714L18.4278 16.6476H18.4469V12L20.7873 10.6476V18L14.4131 21.6762V18.9714Z"/>
<path d="M18.4278 7.35238L16.0875 6L18.4278 4.64762L20.7682 6V8.70476L18.4278 10.0571V7.35238Z"/>
<path d="M8.03887 22.6476V19.9429L10.3793 21.2952L12.7196 19.9429V22.6476L10.3793 24L8.03887 22.6476Z"/>
<path d="M6.36444 17.0286L4.02405 15.6762V12.9714L6.36444 14.3238V17.0286Z"/>
<path d="M10.3793 7.35238L8.03887 6L10.3793 4.64762L12.7196 6L10.3793 7.35238Z"/>
<path d="M4.69001 6L2.34962 7.35238V10.0571L0.00927734 8.70476V6L2.34962 4.64762L4.69001 6Z"/>
<path d="M0.00927734 10.6476L2.34962 12H2.36867V16.6476L6.38348 18.9714V21.6762L0.00927734 18V10.6476Z"/>
<path d="M30.8626 12.0953H26.4482V2.80008H30.7675C32.6702 2.80008 33.8309 3.75246 33.8309 5.20008V5.21913C33.8309 6.26675 33.2791 6.85722 32.6131 7.21913C33.6787 7.63818 34.3446 8.2477 34.3446 9.50484V9.52389C34.3446 11.2572 32.9747 12.0953 30.8626 12.0953ZM31.795 5.54294C31.795 4.93342 31.3193 4.59056 30.4631 4.59056H28.4461V6.55246H30.3298C31.2241 6.55246 31.795 6.26675 31.795 5.56199V5.54294ZM32.3087 9.27627C32.3087 8.6477 31.852 8.26675 30.8055 8.26675H28.4461V10.3048H30.8817C31.7759 10.3048 32.3277 9.98103 32.3277 9.29532V9.27627H32.3087ZM36.5899 12.0953V2.80008H38.6258V12.0953H36.5899ZM47.8732 12.0953L43.3827 6.19056V12.0953H41.3658V2.80008H43.2495L47.6068 8.53342V2.80008H49.6237V12.0953H47.8732ZM58.795 12.0953L57.9387 10.0191H54.019L53.1628 12.0953H51.0888L55.0656 2.72389H56.9493L60.926 12.0953H58.795ZM55.9789 5.20008L54.7421 8.20961H57.2157L55.9789 5.20008ZM68.9366 12.0953L64.4461 6.19056V12.0953H62.4292V2.80008H64.3129L68.6702 8.53342V2.80008H70.6871V12.0953H68.9366ZM77.4039 12.2667C74.6639 12.2667 72.647 10.1525 72.647 7.4858V7.46675C72.647 4.81913 74.6449 2.66675 77.499 2.66675C79.2495 2.66675 80.296 3.25722 81.1523 4.09532L79.8584 5.60008C79.1353 4.95246 78.4123 4.55246 77.4799 4.55246C75.9197 4.55246 74.7781 5.8477 74.7781 7.4477V7.46675C74.7781 9.06675 75.8816 10.381 77.4799 10.381C78.5455 10.381 79.1924 9.96199 79.9155 9.29532L81.2093 10.6096C80.258 11.6191 79.2115 12.2667 77.4039 12.2667ZM82.8647 12.0953V2.80008H89.8669V4.62865H84.9007V6.51437H89.277V8.34294H84.9007V10.3048H89.9429V12.1334H82.8647V12.0953ZM61.63 21.5048C59.7083 21.5048 58.2812 20.0191 58.2812 18.1144C58.2812 16.2287 59.6893 14.7048 61.6681 14.7048C62.8859 14.7048 63.6089 15.1239 64.2368 15.7334L63.4947 16.5906C62.962 16.0953 62.4102 15.7715 61.6491 15.7715C60.3933 15.7715 59.48 16.8001 59.48 18.0953C59.48 19.3906 60.3933 20.4382 61.6491 20.4382C62.4482 20.4382 62.981 20.1144 63.5328 19.581L64.2749 20.3239C63.6089 21.0477 62.8478 21.5048 61.63 21.5048ZM66.9577 18.6096V21.3906H65.7971V14.8001H66.9577V17.5429H70.0973V14.8001H71.258V21.3906H70.0973V18.6096H66.9577ZM79.5159 21.3906H78.2981L77.6322 19.8096H74.5307L73.8457 21.3906H72.666L75.5582 14.762H76.6237L79.5159 21.3906ZM76.0719 16.1334L74.9493 18.762H77.2136L76.0719 16.1334ZM82.1036 14.8001V21.3906H80.9429V14.8001H82.1036ZM88.8013 14.8001H89.9429V21.3906H88.9726L85.3383 16.7048V21.3906H84.1967V14.8001H85.2622L88.7823 19.3525V14.8001H88.8013ZM55.1797 17.562H26.4482V18.6667H55.1797V17.562Z"/>
</svg>
