<svg width="94" height="24" viewBox="0 0 94 24" xmlns="http://www.w3.org/2000/svg">
<path fill-rule="evenodd" clip-rule="evenodd" d="M2.70438 14.7044L5.40871 11.9883L2.70438 9.27219L0 11.9883L2.70438 14.7044ZM16.5526 10.0683L11.9365 5.4322L7.32046 10.0683L4.61608 7.35219L11.9365 0L19.2569 7.35219L16.5526 10.0683ZM18.4642 12.0117L21.1686 9.29561L23.873 12.0117L21.1686 14.7278L18.4642 12.0117ZM7.32046 13.9317L11.9365 18.5678L16.5526 13.9317L19.2569 16.6478L11.9365 24L4.61608 16.6478L7.32046 13.9317ZM14.6409 11.9883L11.9365 14.7044L9.23215 11.9883L11.9365 9.27219L14.6409 11.9883ZM26.8571 18.9747C26.8571 21.7819 28.992 24 31.8618 24C33.7167 24 34.8366 23.3242 35.8515 22.2672L34.7491 21.1581C33.9092 21.9379 33.1392 22.4231 31.9318 22.4231C30.0594 22.4231 28.6945 20.8635 28.6945 18.9401C28.6945 17.0166 30.0419 15.4917 31.9318 15.4917C33.0517 15.4917 33.8916 15.9769 34.6791 16.7047L35.7815 15.4397C34.8366 14.556 33.7517 13.9321 31.9318 13.9321C28.957 13.9321 26.8571 16.2022 26.8571 18.9747ZM39.0888 23.8267V19.7199H43.7785V23.8267H45.5109V14.0881H43.7785V18.143H39.0888V14.0881H37.3564V23.8267H39.0888ZM55.3102 23.8267H57.13L52.7729 14.0188H51.1805L46.8583 23.8267H48.6257L49.6406 21.47H54.2953L55.3102 23.8267ZM50.288 19.9625L51.9679 16.0635L53.6653 19.9625H50.288ZM60.2624 23.8267V14.0881H58.5299V23.8267H60.2624ZM71.2341 14.0881H69.5367H69.5192V20.8116L64.252 14.0881H62.6597V23.8267H64.3571V16.8953L69.7817 23.8267H71.2341V14.0881ZM35.2041 7.20867V7.24332C35.2041 9.02816 33.7517 9.91192 31.5293 9.91192H26.8571V0.190615H31.4243C33.4192 0.190615 34.6616 1.17834 34.6616 2.70325V2.72058C34.6616 3.81228 34.0666 4.4361 33.3667 4.81733C34.5041 5.25054 35.2041 5.90903 35.2041 7.20867ZM30.9519 4.10686C31.9143 4.10686 32.5093 3.81227 32.5093 3.08448V3.04982C32.5093 2.40867 32.0018 2.04477 31.0918 2.04477H28.957V4.10686H30.9519ZM31.5468 8.04043C32.4918 8.04043 33.0692 7.71119 33.0692 6.98339V6.94874C33.0692 6.29025 32.5793 5.8917 31.4768 5.8917H28.9745V8.04043H31.5468ZM39.7363 0.190615V9.91192H37.5664V0.190615H39.7363ZM51.3554 0.190615V9.89459H49.5181L44.7584 3.70831V9.89459H42.6236V0.173285H44.6184L49.2206 6.16895V0.190615H51.3554ZM59.1074 0.121302L63.3246 9.91192H61.0323L60.1398 7.72852H55.9926L55.1002 9.91192H52.8954L57.1126 0.121302H59.1074ZM56.7976 5.83971H59.4049L58.11 2.68592L56.7976 5.83971ZM73.6314 0.190615V9.89459H71.794L67.0344 3.70831V9.89459H64.8995V0.173285H66.8944L71.4966 6.16895V0.190615H73.6314ZM83.4132 6.96607L84.7957 8.33502C83.7807 9.40939 82.6608 10.0852 80.7709 10.0679C77.8836 10.0679 75.7313 7.84982 75.7313 5.05993V5.02527C75.7313 2.27004 77.8486 0 80.8584 0C82.7133 0 83.8157 0.623829 84.7256 1.50758L83.3433 3.08448C82.5733 2.40866 81.8034 1.99278 80.8234 1.99278C79.1611 1.99278 77.9711 3.36173 77.9711 5.02527V5.05993C77.9711 6.72347 79.1436 8.10975 80.8234 8.10975C81.9609 8.10975 82.6433 7.65921 83.4132 6.96607ZM94 8.00578V9.89459H86.528V0.173285H93.93V2.07942H88.6629V4.05488H93.3V5.96101H88.6629V8.00578H94Z"/>
</svg>
