<svg width="40" height="40" viewBox="0 0 40 40" xmlns="http://www.w3.org/2000/svg">
<path d="M20.2454 0L9.63403 6.12482L13.5353 8.3875L20.2454 4.52535L26.9555 8.3875L30.8567 6.12482L20.2454 0Z" />
<path d="M26.9555 11.5864L30.8567 13.8491V18.3745L24.1466 22.2366V29.9609L20.2454 32.2236L16.3441 29.9609V22.2366L9.63403 18.3745V13.8491L13.5353 11.5864L20.2454 15.4486L26.9555 11.5864Z" />
<path d="M30.8567 21.5734V26.0988L26.9555 28.3614V23.8361L30.8567 21.5734Z" />
<path d="M26.9165 31.5604L33.6266 27.6982V19.9739L37.5278 17.7113V29.9609L26.9165 36.0857V31.5604Z" />
<path d="M33.6266 12.2496L29.7254 9.98698L33.6266 7.7243L37.5278 9.98698V14.5123L33.6266 16.775V12.2496Z" />
<path d="M16.3441 37.7242V33.1989L20.2454 35.4616L24.1466 33.1989V37.7242L20.2454 39.9869L16.3441 37.7242Z" />
<path d="M13.5353 28.3614L9.63403 26.0988V21.5734L13.5353 23.8361V28.3614Z" />
<path d="M20.2454 12.2496L16.3441 9.98698L20.2454 7.7243L24.1466 9.98698L20.2454 12.2496Z" />
<path d="M10.7654 9.98698L6.86412 12.2496V16.775L2.96289 14.5123V9.98698L6.86412 7.7243L10.7654 9.98698Z" />
<path d="M2.96289 17.7113L6.86412 19.9739V27.6982L13.5742 31.5604V36.0857L2.96289 29.9609V17.7113Z" />
</svg>
