<svg width="20" height="20" viewBox="0 0 20 20" xmlns="http://www.w3.org/2000/svg">
<path d="M4.51672 10L2.25756 12.2581L0 10L2.25756 7.74191L4.51672 10ZM9.9988 4.51378L13.8698 8.38433L16.1282 6.12624L12.2572 2.25569L9.9988 0L7.74044 2.25809L3.86862 6.12864L6.12698 8.38674L9.9988 4.51378ZM17.7416 7.73951L15.4833 9.9976L17.7416 12.2557L20 9.9976L17.7416 7.73951ZM9.9988 15.4878L6.12938 11.6133L3.87102 13.8714L7.74284 17.7419L9.9988 20L12.2572 17.7419L16.1282 13.8714L13.8698 11.6133L9.9988 15.4878ZM9.9988 12.2621L12.2572 10.004L9.9988 7.74191L7.74044 10L9.9988 12.2621Z" />
</svg>
