<svg width="16" height="16" viewBox="0 0 16 16" fill="none" xmlns="http://www.w3.org/2000/svg">
<path d="M6.05362 5.47879H2.58041C2.29023 5.47879 2.05362 5.71317 2.05362 6.00558C2.05362 6.29576 2.288 6.53237 2.58041 6.53237H6.05362C6.3438 6.53237 6.58041 6.29799 6.58041 6.00558C6.57818 5.71317 6.3438 5.47879 6.05362 5.47879ZM6.05362 8.64844H2.58041C2.29023 8.64844 2.05362 8.88281 2.05362 9.17522C2.05362 9.4654 2.288 9.70201 2.58041 9.70201H6.05362C6.3438 9.70201 6.58041 9.46763 6.58041 9.17522C6.57818 8.88281 6.3438 8.64844 6.05362 8.64844ZM13.5246 5.47879H10.0514C9.76121 5.47879 9.5246 5.71317 9.5246 6.00558C9.5246 6.29576 9.75898 6.53237 10.0514 6.53237H13.5246C13.8148 6.53237 14.0514 6.29799 14.0514 6.00558C14.0514 5.71317 13.8148 5.47879 13.5246 5.47879ZM13.5246 8.64844H10.0514C9.76121 8.64844 9.5246 8.88281 9.5246 9.17522C9.5246 9.4654 9.75898 9.70201 10.0514 9.70201H13.5246C13.8148 9.70201 14.0514 9.46763 14.0514 9.17522C14.0514 8.88281 13.8148 8.64844 13.5246 8.64844ZM14.3594 1.17969H11.0782C9.59157 1.17969 8.5313 1.71987 8.00005 2.06808C7.4688 1.71987 6.40853 1.17969 4.92193 1.17969H1.64068C0.74782 1.17969 0.0201416 1.90737 0.0201416 2.80022V12.2868C0.0201416 13.1797 0.74782 13.9074 1.64068 13.9074H4.92193C4.94202 13.9074 4.96434 13.9051 4.98443 13.9029C7.25898 14.0346 7.51791 14.481 7.52014 14.4855C7.60943 14.6596 7.79023 14.769 7.98666 14.769H8.01344C8.20987 14.769 8.39068 14.6596 8.47996 14.4855C8.48219 14.481 8.73889 14.0346 11.0157 13.9029C11.0358 13.9051 11.0581 13.9074 11.0782 13.9074H14.3594C15.2523 13.9074 15.98 13.1797 15.98 12.2868V2.80022C15.9822 1.90737 15.2545 1.17969 14.3594 1.17969ZM6.93978 13.0993C6.39961 12.9721 5.70541 12.885 4.87059 12.8449C4.44648 12.8248 4.0313 12.8158 3.65853 12.8158C2.86612 12.8158 2.25898 12.8493 2.14737 12.856H1.63845C1.32371 12.856 1.06925 12.6016 1.06925 12.2868V2.80022C1.06925 2.48549 1.32371 2.23103 1.63845 2.23103H4.91969C5.64068 2.23103 6.32148 2.38281 6.94425 2.67969C7.15407 2.78013 7.32148 2.88058 7.44202 2.96317L7.47103 10.9252L7.46434 13.2556C7.30586 13.1975 7.13175 13.1462 6.93978 13.0993ZM14.9309 12.2868C14.9309 12.6016 14.6764 12.856 14.3617 12.856H13.8527C13.6898 12.8471 12.4554 12.7801 11.1295 12.8449C10.2969 12.885 9.6005 12.9721 9.06032 13.0993C8.86836 13.144 8.69425 13.1975 8.53577 13.2556L8.52461 10.9252L8.55362 2.96317C8.67416 2.88281 8.84157 2.78013 9.05139 2.67969C9.67416 2.38281 10.355 2.23103 11.0759 2.23103H14.3572C14.6719 2.23103 14.9264 2.48549 14.9264 2.80022L14.9309 12.2868Z" />
</svg>
