<svg width="48" height="48" viewBox="0 0 48 48" fill="none" xmlns="http://www.w3.org/2000/svg">
<path fill-rule="evenodd" clip-rule="evenodd" d="M32.1 1.25H33L40.25 8.5V46.77H39V46.75H7.75V1.25H30.6V2.5H9V45.5H39V9.395H32.1V1.25ZM33.365 3.38V8.145H38.13L33.365 3.38ZM15.6549 18.2699L13.3799 15.9949L14.2649 15.1099L15.6549 16.4999L18.5349 13.6199L19.4199 14.5049L15.6549 18.2699ZM15.6549 26.9751L13.3799 24.7001L14.2649 23.8201L15.6549 25.2101L18.5349 22.3301L19.4199 23.2101L15.6549 26.9751ZM13.3799 33.4099L15.6549 35.6849L19.4199 31.9199L18.5349 31.0349L15.6549 33.9149L14.2649 32.5249L13.3799 33.4099ZM33.335 16.5701H32.085V15.3201H33.335V16.5701ZM30.585 16.5701H29.335V15.3201H30.585V16.5701ZM27.835 16.5701H26.585V15.3201H27.835V16.5701ZM25.085 16.5701H23.835V15.3201H25.085V16.5701ZM32.085 25.2749H33.335V24.0249H32.085V25.2749ZM29.335 25.2749H30.585V24.0249H29.335V25.2749ZM26.585 25.2749H27.835V24.0249H26.585V25.2749ZM23.835 25.2749H25.085V24.0249H23.835V25.2749ZM33.335 33.7498H32.085V32.4998H33.335V33.7498ZM30.585 33.7498H29.335V32.4998H30.585V33.7498ZM27.835 33.7498H26.585V32.4998H27.835V33.7498ZM25.085 33.7498H23.835V32.4998H25.085V33.7498Z" />
</svg>
