<svg width="14" height="14" viewBox="0 0 14 14" xmlns="http://www.w3.org/2000/svg">
<path fill-rule="evenodd" clip-rule="evenodd" d="M6.99967 12.3335C4.05901 12.3335 1.66634 9.9408 1.66634 7.00016C1.66634 4.0595 4.05901 1.66683 6.99967 1.66683C9.9403 1.66683 12.333 4.0595 12.333 7.00016C12.333 9.9408 9.9403 12.3335 6.99967 12.3335ZM6.99967 13.6668C10.6817 13.6668 13.6663 10.6822 13.6663 7.00016C13.6663 3.31816 10.6817 0.3335 6.99967 0.3335C3.31767 0.3335 0.33301 3.31816 0.33301 7.00016C0.33301 10.6822 3.31767 13.6668 6.99967 13.6668ZM7.67437 3.00016H6.33504V8.3335H7.67437V3.00016ZM6.33504 9.6608H7.67437V11.0001H6.33504V9.6608Z"/>
</svg>
