<svg width="16" height="16" viewBox="0 0 16 16" fill="none" xmlns="http://www.w3.org/2000/svg">
<path fill-rule="evenodd" clip-rule="evenodd" d="M7.99967 13.3335C5.05901 13.3335 2.66634 10.9408 2.66634 8.00016C2.66634 5.0595 5.05901 2.66683 7.99967 2.66683C10.9403 2.66683 13.333 5.0595 13.333 8.00016C13.333 10.9408 10.9403 13.3335 7.99967 13.3335ZM7.99967 14.6668C11.6817 14.6668 14.6663 11.6822 14.6663 8.00016C14.6663 4.31816 11.6817 1.3335 7.99967 1.3335C4.31767 1.3335 1.33301 4.31816 1.33301 8.00016C1.33301 11.6822 4.31767 14.6668 7.99967 14.6668ZM8.67437 4.00016H7.33504V9.3335H8.67437V4.00016ZM7.33504 10.6608H8.67437V12.0001H7.33504V10.6608Z" />
</svg>
