<svg width="16" height="16" viewBox="0 0 16 16" fill="none" xmlns="http://www.w3.org/2000/svg">
<path d="M14.4328 5.42599C13.74 3.80881 12.4434 2.51219 10.8262 1.81943C11.2635 1.47507 11.814 1.26794 12.4138 1.26794C13.8334 1.26794 14.9842 2.41876 14.9842 3.83839C14.9842 4.43821 14.7771 4.98865 14.4328 5.42599ZM14.3279 8.269C14.3279 9.95452 13.6662 11.4823 12.594 12.6185L13.4815 13.5059C13.5989 13.6234 13.6715 13.7856 13.6715 13.9648C13.6715 14.3232 13.381 14.6138 13.0225 14.6138C12.8434 14.6138 12.6811 14.5411 12.5637 14.4237L11.6104 13.4705C10.5819 14.1891 9.33302 14.6138 7.98316 14.6138C6.63598 14.6138 5.38918 14.1909 4.36184 13.4749L3.41524 14.4215C3.29644 14.5403 3.13237 14.6137 2.9511 14.6137C2.58863 14.6137 2.29475 14.3199 2.29475 13.9574C2.29475 13.7761 2.36822 13.612 2.48702 13.4933L3.3673 12.613C2.29816 11.4773 1.63843 9.95185 1.63843 8.26899C1.63843 4.76492 4.47906 1.92425 7.98316 1.92425C11.4873 1.92427 14.3279 4.76493 14.3279 8.269ZM7.98318 3.23698C5.20406 3.23698 2.95112 5.48988 2.95112 8.269C2.95112 11.0481 5.20406 13.301 7.98318 13.301C10.7623 13.301 13.0152 11.0481 13.0152 8.26902C13.0152 5.4899 10.7623 3.23698 7.98318 3.23698ZM10.6086 8.92538H7.98318C7.62066 8.92538 7.32681 8.63153 7.32681 8.269V4.76848C7.32681 4.40598 7.62066 4.11216 7.98318 4.11216C8.34566 4.11216 8.63954 4.40599 8.63954 4.76848V7.61268H10.6086C10.9711 7.61268 11.2649 7.90653 11.2649 8.269C11.2649 8.63153 10.9711 8.92538 10.6086 8.92538ZM1.54534 5.51487C1.19361 5.06825 0.982056 4.506 0.982056 3.89335C0.982056 2.44337 2.1575 1.26794 3.60746 1.26794C4.2201 1.26794 4.78238 1.47951 5.22902 1.83123C3.57727 2.53879 2.25291 3.86313 1.54534 5.51487Z" fill="currentColor" />
</svg>
