<svg width="16" height="16" viewBox="0 0 16 16" fill="none" xmlns="http://www.w3.org/2000/svg">
<path fill-rule="evenodd" clip-rule="evenodd" d="M0.574319 0.0112305H15.4109H15.4115C15.5604 0.0116842 15.7032 0.0711853 15.8084 0.176692C15.9135 0.282199 15.9726 0.425105 15.9726 0.574088V15.4112C15.9726 15.7312 15.7115 15.9827 15.4012 15.9827H0.573748C0.253748 15.9827 0.00231934 15.7215 0.00231934 15.4112V0.584373C0.00231934 0.264373 0.264034 0.0112305 0.574319 0.0112305ZM14.8383 4.56894V1.14609H1.14689V4.56894H14.8383ZM1.14689 5.71409V14.8381L1.14632 14.8387H14.8286V5.71409H1.14689ZM9.53425 10.2712H12.7245C13.0445 10.2712 13.2965 10.5329 13.2965 10.8432C13.2965 11.1632 13.0348 11.4152 12.7245 11.4152H9.53368C9.21368 11.4152 8.96225 11.1535 8.96225 10.8427C8.96225 10.5227 9.22397 10.2712 9.53425 10.2712ZM3.43482 2.29065H2.29082V3.43408H3.43482V2.29065ZM5.71425 2.29065H4.56911V3.43408H5.71425V2.29065ZM7.99254 2.29065H6.84797V3.43408H7.99254V2.29065ZM3.7746 7.79042C3.90872 7.76724 4.04669 7.79417 4.16225 7.86608L6.84797 9.65066C6.91772 9.69598 6.97728 9.75533 7.02282 9.82494C7.06208 9.88661 7.08871 9.95546 7.10117 10.0275C7.11363 10.0995 7.11167 10.1733 7.0954 10.2446C7.07914 10.3159 7.04889 10.3832 7.00642 10.4427C6.96395 10.5022 6.91009 10.5527 6.84797 10.5912L4.21082 12.3655C4.12339 12.4335 4.00682 12.4724 3.90054 12.4724C3.8054 12.4737 3.71155 12.4503 3.62819 12.4044C3.54484 12.3585 3.47485 12.2918 3.42511 12.2107C3.33481 12.0906 3.29539 11.9399 3.31539 11.791C3.33539 11.6422 3.41319 11.5072 3.53197 11.4152L5.53882 10.1261L3.58968 8.77751C3.33768 8.60323 3.26054 8.25408 3.43482 7.9918C3.51955 7.88527 3.64047 7.8136 3.7746 7.79042Z" />
</svg>
