<svg width="24" height="24" viewBox="0 0 24 24" fill="none" xmlns="http://www.w3.org/2000/svg">
<path fill-rule="evenodd" clip-rule="evenodd" d="M9.21823 6.40737L9.36432 7.00156C9.37274 7.02999 9.3681 7.06013 9.35137 7.08565C9.33634 7.11059 9.31124 7.12988 9.28084 7.13983L9.25997 7.14357C9.24619 7.14917 9.2317 7.15336 9.21679 7.15603C9.19423 7.16107 9.1719 7.16689 9.14987 7.17347C9.12036 7.18157 9.09014 7.18842 9.06063 7.19402L8.95412 7.21271C8.86656 7.22703 8.77847 7.23887 8.69001 7.24821C8.58628 7.2579 8.48203 7.26289 8.37769 7.26316C7.72929 7.26316 7.16149 7.1006 6.67645 6.77547C6.19141 6.45035 5.86109 6.01187 5.68622 5.46128H5.29113C5.27354 5.46134 5.25612 5.45822 5.24001 5.4521C5.2239 5.44599 5.20944 5.43702 5.19758 5.42578C5.18484 5.41475 5.17479 5.40163 5.16799 5.38719C5.16119 5.37275 5.15779 5.35728 5.158 5.34169V4.9194C5.158 4.88702 5.17167 4.85899 5.19758 4.83532C5.20944 4.82408 5.2239 4.81511 5.24001 4.80899C5.25612 4.80288 5.27354 4.79975 5.29113 4.79982H5.56604C5.56044 4.66904 5.56188 4.5381 5.57035 4.40743H5.29113C5.27335 4.40792 5.25564 4.40518 5.23916 4.39939C5.22267 4.39359 5.20777 4.38488 5.19542 4.3738C5.18288 4.36235 5.17311 4.34885 5.16668 4.33409C5.16025 4.31933 5.1573 4.30361 5.158 4.28784V3.86182C5.158 3.82694 5.17095 3.79829 5.19542 3.77587C5.20777 3.76479 5.22267 3.75607 5.23916 3.75028C5.25564 3.74448 5.27335 3.74174 5.29113 3.74223H5.69917C5.86997 3.23733 6.22523 2.79393 6.71171 2.47849C7.19013 2.16269 7.77676 1.99433 8.37841 2.00015C8.66123 2.00015 8.92966 2.0288 9.18513 2.0861C9.21955 2.09596 9.24902 2.11575 9.26861 2.14215C9.28518 2.16976 9.28953 2.20165 9.28084 2.23184L9.10165 2.82603C9.09846 2.84098 9.09169 2.85519 9.08177 2.86774C9.07186 2.88029 9.05902 2.89091 9.04408 2.89891C9.02922 2.90701 9.01242 2.91207 8.99496 2.91369C8.97749 2.9153 8.95983 2.91344 8.94333 2.90825L8.9275 2.90451C8.91151 2.90108 8.89543 2.89796 8.87928 2.89517L8.8066 2.88271L8.71304 2.86901L8.6051 2.8578L8.4842 2.84846L8.36186 2.84472C8.01211 2.84472 7.69834 2.92444 7.42128 3.08389C7.14249 3.24495 6.92531 3.4741 6.79735 3.74223H8.74399C8.78861 3.74223 8.82315 3.75718 8.84834 3.78708C8.86152 3.80023 8.87099 3.81585 8.87599 3.83272C8.88098 3.84958 8.88137 3.86722 8.87712 3.88424L8.77709 4.31027C8.76342 4.37504 8.71952 4.40743 8.64396 4.40743H6.61456C6.60605 4.53812 6.60605 4.66913 6.61456 4.79982H8.52378C8.56552 4.79982 8.60006 4.81477 8.62741 4.84466C8.63969 4.85895 8.6483 4.87534 8.65264 4.89275C8.65699 4.91016 8.65697 4.92816 8.65259 4.94556L8.55256 5.36411C8.5474 5.39108 8.53133 5.41559 8.50723 5.43325C8.48442 5.45128 8.45464 5.46128 8.42375 5.46128H6.8139C6.94703 5.75277 7.15429 5.98446 7.43567 6.1545C7.71705 6.32578 8.03442 6.41111 8.38632 6.41111C8.52432 6.40754 8.66186 6.39567 8.79796 6.37561C8.85836 6.36644 8.91816 6.35459 8.97715 6.34011L9.02753 6.3289L9.04768 6.3208C9.08366 6.30834 9.11964 6.31083 9.15562 6.3289C9.18945 6.34633 9.21032 6.37249 9.21823 6.40737ZM20.947 12.5263C20.947 17.6938 16.7002 22 11.3645 22C7.98879 22 4.83089 20.1698 3.08861 17.2631C3.03416 17.1555 2.97971 17.0747 2.92527 16.994L2.92526 16.994C2.87082 16.9133 2.81637 16.8325 2.76193 16.7249C2.82923 16.6583 2.81334 16.5918 2.79138 16.4998C2.77781 16.443 2.76193 16.3765 2.76193 16.2942C2.54414 15.8636 2.43525 15.433 2.32636 15.0024L2.32635 15.0024L4.39532 14.4641L4.722 15.433C4.83089 15.6483 4.93979 15.8636 4.93979 15.9713C6.13761 18.3397 8.64214 19.8469 11.4734 19.8469C15.5024 19.8469 18.8781 16.6172 18.8781 12.5263C18.8781 8.54305 15.6113 5.20572 11.4734 5.20572V3.05261C16.7002 3.16027 20.947 7.35884 20.947 12.5263ZM10.8787 16.7653V17.7041H12.3433V16.68C13.8993 16.4239 14.6316 15.5704 14.6316 14.4609C14.6316 13.266 13.8078 12.6686 12.1602 12.3272V10.5349C12.7094 10.7056 13.0755 10.9616 13.3501 11.2176L14.357 10.3642C13.8993 9.76672 13.1671 9.42532 12.2517 9.33998V8.3158H10.8787V9.42533C9.41419 9.59603 8.5904 10.3642 8.5904 11.4737C8.5904 12.5832 9.32266 13.266 11.0618 13.6074V15.5704C10.4211 15.4851 9.87186 15.1437 9.41419 14.7169L8.3158 15.6558C8.865 16.2532 9.68879 16.68 10.8787 16.7653ZM11.0618 10.5349V12.1565C10.5126 12.0711 10.238 11.8151 10.238 11.3883C10.238 10.9616 10.4211 10.6202 11.0618 10.5349ZM12.0687 15.4851V13.7781C12.8009 13.9488 12.8925 14.2902 12.8925 14.5462C12.8925 14.973 12.6179 15.3144 12.0687 15.4851ZM6.21047 12.4065V11.0353H6.20977C6.20959 11.0193 6.20601 11.0035 6.19926 10.9888C6.1925 10.9742 6.1827 10.9609 6.17042 10.9498C6.15814 10.9387 6.14363 10.93 6.12774 10.9243C6.11184 10.9185 6.09488 10.9158 6.07784 10.9162H5.4091C5.3916 10.9156 5.37415 10.9183 5.35784 10.9243C5.34154 10.9303 5.32674 10.9394 5.31436 10.9511C5.2891 10.9747 5.27717 11.003 5.27717 11.0353V11.7123H3.56847V10.2951H4.82737C4.84467 10.2953 4.86185 10.2923 4.87788 10.2862C4.89391 10.2801 4.90847 10.271 4.9207 10.2595C4.94666 10.2359 4.95929 10.2082 4.95929 10.1753V9.6858C4.95987 9.66967 4.95672 9.65362 4.95006 9.63874C4.9434 9.62387 4.93338 9.61051 4.9207 9.59961C4.8954 9.5775 4.86194 9.56547 4.82737 9.56605H3.56847V8.76268C3.56531 8.67584 3.58296 8.58945 3.62012 8.50985C3.65728 8.43026 3.71301 8.35949 3.7832 8.30276C3.92565 8.18565 4.11441 8.12709 4.34809 8.12709C4.47947 8.12818 4.60963 8.15089 4.73263 8.1942C4.83143 8.22502 4.92665 8.26515 5.01683 8.31395C5.05443 8.33514 5.09031 8.35889 5.1242 8.38501C5.1368 8.39588 5.15189 8.4039 5.16831 8.40846C5.18473 8.41303 5.20204 8.41401 5.21893 8.41133C5.23667 8.41013 5.25395 8.40548 5.26965 8.39766C5.28536 8.38984 5.29916 8.37903 5.31015 8.36593L5.7354 7.89154C5.74617 7.88012 5.75434 7.86677 5.75941 7.85228C5.76448 7.8378 5.76634 7.8225 5.76487 7.80732C5.76206 7.77639 5.74803 7.75008 5.72347 7.73034C5.31086 7.41912 4.84982 7.26318 4.34107 7.26318C3.81478 7.26318 3.38251 7.40136 3.04288 7.6777C2.70324 7.9547 2.53273 8.30605 2.53273 8.73241V9.56605H2.14116C2.12366 9.56524 2.10616 9.5678 2.08974 9.57357C2.07333 9.57934 2.05835 9.5882 2.04573 9.59961C2.02117 9.62198 2.00854 9.65093 2.00854 9.6858V10.1753C2.00871 10.1914 2.01231 10.2072 2.01911 10.2219C2.02591 10.2366 2.03577 10.2499 2.04813 10.261C2.06048 10.2721 2.07508 10.2808 2.09105 10.2865C2.10703 10.2923 2.12407 10.2949 2.14116 10.2944H2.53273V11.7261H2.13274C2.11544 11.7259 2.09826 11.7289 2.08223 11.735C2.0662 11.7411 2.05164 11.7502 2.03941 11.7617C2.01345 11.7847 2.00012 11.813 2.00012 11.8459V12.4065C1.99936 12.4225 2.00229 12.4385 2.00871 12.4534C2.01512 12.4682 2.02488 12.4816 2.03731 12.4927C2.05005 12.5039 2.06505 12.5127 2.08143 12.5184C2.09781 12.5242 2.11526 12.5268 2.13274 12.5262H6.07854C6.0961 12.5269 6.11363 12.5243 6.13005 12.5184C6.14646 12.5125 6.16141 12.5035 6.17398 12.492C6.18601 12.4809 6.19546 12.4675 6.20174 12.4528C6.20802 12.4381 6.21099 12.4223 6.21047 12.4065Z"/>
</svg>
