<svg width="40" height="40" viewBox="0 0 40 40" fill="none" xmlns="http://www.w3.org/2000/svg">
<path fill-rule="evenodd" clip-rule="evenodd" d="M39.1237 8.65067L31.1652 0.559363V0.56003C30.9911 0.382586 30.7842 0.241804 30.5565 0.145746C30.3288 0.0496889 30.0847 0.000244141 29.8382 0.000244141C29.5917 0.000244141 29.3476 0.0496889 29.1199 0.145746C28.8921 0.241804 28.6853 0.382586 28.5112 0.56003L20.5494 8.65267C20.1982 9.01046 20.0012 9.49542 20.0017 10.0009C20.0022 10.5063 20.2001 10.9909 20.5521 11.348L28.5119 19.44L28.5138 19.4426C28.8658 19.7997 29.3428 20 29.84 19.9995C30.3373 19.999 30.8139 19.7977 31.1652 19.44L39.1237 11.348C39.2981 11.171 39.4365 10.9608 39.531 10.7294C39.6254 10.498 39.674 10.2499 39.674 9.99933C39.674 9.74879 39.6254 9.50071 39.531 9.26929C39.4365 9.03787 39.2981 8.82765 39.1237 8.65067ZM22.8119 9.99933L29.8379 2.85669H29.8385L36.8645 9.99933L29.8385 17.1426L22.8119 9.99933ZM2.5772 20H14.9425C15.2379 20 15.5304 19.9409 15.8032 19.8259C16.0761 19.711 16.324 19.5426 16.5328 19.3302C16.7416 19.1179 16.9073 18.8658 17.0202 18.5884C17.1332 18.311 17.1913 18.0136 17.1912 17.7134V5.14273C17.1912 4.84253 17.133 4.54527 17.02 4.26792C16.907 3.99057 16.7414 3.73856 16.5326 3.52629C16.3238 3.31401 16.0759 3.14563 15.8031 3.03075C15.5302 2.91586 15.2378 2.85674 14.9425 2.85674H2.57654C2.28124 2.85674 1.98884 2.91586 1.71602 3.03075C1.4432 3.14563 1.19531 3.31401 0.986499 3.52629C0.777691 3.73856 0.612056 3.99057 0.49905 4.26792C0.386044 4.54527 0.327881 4.84253 0.327881 5.14273V17.714C0.327881 18.0143 0.386066 18.3116 0.499113 18.589C0.61216 18.8664 0.777853 19.1184 0.986731 19.3307C1.19561 19.543 1.44358 19.7114 1.71647 19.8262C1.98937 19.941 2.28185 20.0001 2.5772 20ZM3.13854 5.71406H14.3805V17.1427H3.13854V5.71406ZM2.5772 39.9999H14.9425C15.2379 39.9999 15.5304 39.9408 15.8032 39.8258C16.0761 39.7109 16.324 39.5425 16.5328 39.3301C16.7416 39.1178 16.9073 38.8657 17.0202 38.5883C17.1332 38.3108 17.1913 38.0135 17.1912 37.7132V25.1426C17.1912 24.8424 17.133 24.5452 17.02 24.2678C16.907 23.9905 16.7414 23.7385 16.5326 23.5262C16.3238 23.3139 16.0759 23.1455 15.8031 23.0307C15.5302 22.9158 15.2378 22.8567 14.9425 22.8567H2.57654C2.28124 22.8567 1.98884 22.9158 1.71602 23.0307C1.4432 23.1455 1.19531 23.3139 0.986499 23.5262C0.777691 23.7385 0.612056 23.9905 0.49905 24.2678C0.386044 24.5452 0.327881 24.8424 0.327881 25.1426V37.7139C0.327881 38.0142 0.386066 38.3115 0.499113 38.5889C0.61216 38.8663 0.777853 39.1183 0.986731 39.3306C1.19561 39.5429 1.44358 39.7112 1.71647 39.8261C1.98937 39.9409 2.28185 40 2.5772 39.9999ZM3.13854 25.714H14.3805V37.1426H3.13854V25.714ZM34.6172 22.8567H22.2505C21.6543 22.8568 21.0818 23.0978 20.6603 23.5264C20.2387 23.9551 20.0019 24.5365 20.0019 25.1426V37.7139C20.0019 38.3201 20.2387 38.9014 20.6603 39.3301C21.0818 39.7588 21.6536 39.9997 22.2499 39.9999H34.6165C34.9119 39.9999 35.2043 39.9408 35.4772 39.8258C35.7501 39.7109 35.998 39.5425 36.2068 39.3301C36.4156 39.1178 36.5812 38.8657 36.6942 38.5883C36.8072 38.3108 36.8653 38.0135 36.8652 37.7132V25.1426C36.8652 24.5365 36.6284 23.9551 36.2068 23.5264C35.7852 23.0978 35.2135 22.8568 34.6172 22.8567ZM34.0545 37.1432H22.8125L22.8119 37.1419V25.7133H34.0545V37.1432Z" />
</svg>
