<svg width="16" height="14" viewBox="0 0 16 14" xmlns="http://www.w3.org/2000/svg">
<g clip-path="url(#clip0)">
<path fill-rule="evenodd" clip-rule="evenodd" d="M7 13C7 13.5523 7.44772 14 8 14C8.55228 14 9 13.5523 9 13V1C9 0.447715 8.55228 0 8 0C7.44772 0 7 0.447716 7 1V13ZM10 3.99935V1.99935H11C13.7614 1.99935 16 4.23793 16 6.99935C16 9.76078 13.7614 11.9994 11 11.9994H10V9.99935H11C12.6569 9.99935 14 8.65621 14 6.99935C14 5.3425 12.6569 3.99935 11 3.99935H10ZM6 9.99935V11.9994H5C2.23858 11.9994 0 9.76078 0 6.99935C0 4.23793 2.23858 1.99935 5 1.99935H6V3.99935H5C3.34315 3.99935 2 5.3425 2 6.99935C2 8.65621 3.34315 9.99935 5 9.99935H6Z" />
</g>
<defs>
<clipPath id="clip0">
<rect width="16" height="14"/>
</clipPath>
</defs>
</svg>
