<svg width="38" height="38" viewBox="0 0 38 38" fill="none" xmlns="http://www.w3.org/2000/svg">
<path fill-rule="evenodd" clip-rule="evenodd" d="M7.75 30.7V2.5H37V30.85C37 33.4 35.05 35.35 32.5 35.35H5.8C3.25 35.35 1 33.25 1 30.7V17.5H5.8V20.5H4V30.85C4 31.75 5.05 32.5 5.95 32.5C6.85 32.5 7.75 31.75 7.75 30.7ZM32.5 32.5C33.25 32.5 34 31.75 34 31V5.5H10.75V30.85C10.7027 31.0392 10.6703 31.2284 10.6387 31.4129C10.5702 31.8135 10.5054 32.1919 10.3 32.5H32.5ZM14.5 10.75H30.25V13.75H14.5V10.75ZM14.5 17.5H30.25V20.5H14.5V17.5ZM30.25 24.25H14.5V27.25H30.25V24.25Z"/>
</svg>
