<svg width="64" height="64" viewBox="0 0 64 64" fill="none" xmlns="http://www.w3.org/2000/svg">
<path fill-rule="evenodd" clip-rule="evenodd" d="M3 2.40015V41.8401H30.84V44.1601H20.7828V46.4801H35.48V48.8001H45.9298C44.7269 50.2001 44 52.0207 44 54.0112C44 58.4295 47.5817 62.0112 52 62.0112C56.4183 62.0112 60 58.4295 60 54.0112C60 51.2013 58.5513 48.7297 56.36 47.3026V41.8401H61V2.40015H3ZM54.04 46.2737V9.47615H50.56V11.7961H41.28V9.47615H37.8V46.4801H49.2949C50.1398 46.1766 51.0506 46.0112 52 46.0112C52.705 46.0112 53.3887 46.1024 54.04 46.2737ZM58.68 32.5601V39.5201H56.36V32.5601H58.68ZM56.36 30.2401V7.10975L35.48 7.04015V30.2401H5.32V4.72015H58.68V30.2401H56.36ZM35.48 44.1601H33.16V41.8401H35.48V44.1601ZM35.48 32.5601V39.5201H5.32V32.5601H35.48ZM33.1832 34.8918H30.8632V37.2002H33.1832V34.8918ZM40.1432 41.7938H42.4632V44.1138H40.1432V41.7938ZM47.1032 41.7938H44.7832V44.1138H47.1032V41.7938ZM49.4232 41.7938H51.7432V44.1138H49.4232V41.7938ZM51.5194 57.2596L47.84 53.8377L48.9728 52.7902L51.5194 55.1528L56.2298 50.7725L57.3626 51.8259L51.5194 57.2596Z" fill="currentColor" />
</svg>
