<svg width="20" height="20" viewBox="0 0 20 20" fill="none" xmlns="http://www.w3.org/2000/svg">
<path d="M20 9.99004C20 4.47552 15.5199 0 10 0C4.47996 0 0 4.47552 0 9.99004C0 15.0849 3.82 19.2807 8.75996 19.9002C9.04 19.96 9.37996 20 9.78 20C9.9 20 10 20 10.1 19.9801C15.58 19.9002 20 15.4645 20 9.99004ZM18.58 10.1298C18.56 9.6304 18.48 9.15088 18.38 8.67132C18.38 8.51148 18.3999 8.35164 18.38 8.1918C18.5 8.77124 18.56 9.3706 18.56 9.99004C18.58 10.03 18.58 10.07 18.58 10.1298ZM1.42 9.99004C1.42 9.39068 1.48 8.79128 1.59996 8.23176C1.98 8.63132 2.84004 8.6114 3.05996 8.03196C3.44 8.25176 3.96 8.29172 3.96 8.7512C3.96 10.2497 4.02004 11.8482 5.38 11.8681C5.42 11.8681 6.14 12.1478 6.48 13.027C6.6 13.3266 7.06004 13.027 7.58 13.027C7.83996 13.027 7.58 13.4666 7.58 14.3856C7.58 15.3247 9.57996 16.7433 9.57996 16.7433C9.57996 17.3626 9.6 17.8622 9.64 18.2618C9.18 18.2618 8.8 18.3217 8.5 18.4216C4.47996 17.7023 1.42 14.2058 1.42 9.99004ZM12.12 18.2818C12.0799 18.062 11.88 17.9421 11.52 18.042C11.8 16.8432 11.94 16.1639 12.54 15.6444C13.4 14.9051 12.64 14.086 12 14.1858C11.48 14.2658 11.82 13.5465 11.36 13.5066C10.9 13.4666 10.3 12.5675 9.64 12.2478C9.3 12.088 8.93996 11.6284 8.39996 11.6284C7.91996 11.6085 7.22004 12.028 7.22004 11.7083C7.22004 10.6694 7.12 9.91016 7.10004 9.61044C7.08004 9.37064 6.94 9.53052 7.58004 9.55052C7.94004 9.55052 7.76 8.8512 8.1 8.81128C8.43996 8.79132 9.26 9.13096 9.46 8.99112C9.66 8.87124 10.88 12.1878 10.88 9.55052C10.88 9.23088 10.72 8.69136 10.88 8.39164C11.52 7.21288 12.14 6.2538 12.08 6.114C12.04 6.03408 11.42 5.97408 10.92 6.13392C10.7401 6.19392 10.98 6.4536 10.72 6.51356C9.80004 6.73328 9.00004 6.2738 9.28004 5.83428C9.56008 5.39476 10.62 5.63448 10.72 4.75528C10.7801 4.25584 10.82 3.65648 10.84 3.21684C12.08 3.41664 11.94 1.61848 10.1 1.41868C13.8 1.45856 16.9399 3.85616 18.1 7.17288C18.04 7.11288 17.98 7.09296 17.9 7.07292C17.3399 5.69428 16 6.69328 16.46 7.91208C14.0199 9.79028 14.64 11.089 15.44 11.8482C15.86 12.2478 16.26 12.8272 16.52 13.2668C16.24 14.1059 17.58 13.7662 18.24 12.3477C17.4 15.2647 15.06 17.5224 12.12 18.2818Z" />
</svg>
