<svg width="16" height="16" viewBox="0 0 16 16" fill="none" xmlns="http://www.w3.org/2000/svg">
<path fill-rule="evenodd" clip-rule="evenodd" d="M6.43195 1.58895C6.43195 2.0158 6.60151 2.42517 6.90334 2.727C7.20518 3.02884 7.61455 3.1984 8.0414 3.1984C8.46825 3.1984 8.87763 3.02884 9.17946 2.727C9.48129 2.42517 9.65086 2.0158 9.65086 1.58895C9.65086 1.16209 9.48129 0.752722 9.17946 0.450891C8.87763 0.149059 8.46825 -0.0205078 8.0414 -0.0205078C7.61455 -0.0205078 7.20518 0.149059 6.90334 0.450891C6.60151 0.752722 6.43195 1.16209 6.43195 1.58895ZM5.36004 15.0378C2.53945 13.9578 0.534912 11.2246 0.534912 8.02353C0.534912 4.82243 2.53945 2.08765 5.36004 1.00928V2.17184C3.14502 3.18868 1.6068 5.42638 1.6068 8.02353C1.6068 10.6207 3.14502 12.8584 5.36004 13.8752V15.0378ZM10.7227 1.00928C13.545 2.08926 15.5495 4.82243 15.5495 8.02353C15.5495 11.2246 13.545 13.9578 10.7227 15.0378V13.8752C12.9378 12.8584 14.476 10.6207 14.476 8.02353C14.476 5.42638 12.9378 3.18868 10.7227 2.17184V1.00928ZM6.90334 15.5962C6.60151 15.2943 6.43195 14.8849 6.43195 14.4581C6.43195 14.0312 6.60151 13.6219 6.90334 13.32C7.20518 13.0182 7.61455 12.8486 8.0414 12.8486C8.46825 12.8486 8.87763 13.0182 9.17946 13.32C9.48129 13.6219 9.65086 14.0312 9.65086 14.4581C9.65086 14.8849 9.48129 15.2943 9.17946 15.5962C8.87763 15.898 8.46825 16.0676 8.0414 16.0676C7.61455 16.0676 7.20518 15.898 6.90334 15.5962Z"/>
</svg>
