<svg width="64" height="64" viewBox="0 0 64 64" fill="none" xmlns="http://www.w3.org/2000/svg">
<path fill-rule="evenodd" clip-rule="evenodd" d="M58.3663 42.4114V13.021H52.8511V10.5874H58.3663V5.6626H5.66236V10.5874H50.0288V13.021H5.66236V58.381H7.40476V59.5474V59.5762V59.605V60.7858H6.22396H6.19516H3.22876V3.229H60.7999V42.4114H58.3663ZM60.8 44.8162V60.7858H14.2304V58.3666H58.3664V44.8162H60.8ZM9.6278 60.7902H12.0326V58.3854H9.6278V60.7902ZM29.1055 38.2929C29.7298 38.9173 30.4095 39.4664 31.1335 39.9356C31.4661 39.0825 32.2945 38.4802 33.2672 38.4802C34.5344 38.4802 35.5568 39.5026 35.5568 40.7698C35.5568 41.0849 35.4936 41.3848 35.3791 41.6577C36.164 41.8133 36.9701 41.8929 37.7887 41.8929C41.0719 41.8929 44.1391 40.6257 46.4719 38.2929C48.7903 35.9745 50.0719 32.8929 50.0719 29.6097C50.0719 26.3265 48.8047 23.2593 46.4719 20.9265C44.1535 18.6081 41.0719 17.3265 37.7887 17.3265C34.5055 17.3265 31.4383 18.5937 29.1055 20.9265C26.7871 23.2449 25.5055 26.3265 25.5055 29.6097C25.5055 32.8929 26.7727 35.9601 29.1055 38.2929ZM21.4879 33.0946C22.5114 33.0946 23.3437 32.2893 23.387 31.2767C23.7081 34.0703 24.8394 36.7882 26.7808 39.0481L24.3607 41.4682L23.1727 40.2802L13.5535 49.8994L17.4847 53.8306L27.1039 44.2114L25.9303 43.0378L28.3506 40.6175C31.0533 42.9366 34.421 44.0961 37.7887 44.0961C41.5039 44.0961 45.2191 42.6993 48.0415 39.8625C53.7007 34.2033 53.7007 25.0161 48.0415 19.3569C45.2191 16.5345 41.5039 15.1233 37.7887 15.1233C34.0735 15.1233 30.3583 16.5345 27.5359 19.3569C24.4175 22.4754 23.0174 26.665 23.3357 30.7453C23.1346 29.9112 22.3846 29.293 21.4879 29.293C20.4367 29.293 19.5871 30.1426 19.5871 31.1938C19.5871 32.245 20.4511 33.0946 21.4879 33.0946ZM35.5568 53.3697C36.608 53.3697 37.4576 52.5201 37.4576 51.4689C37.4576 50.4177 36.608 49.5681 35.5568 49.5681C34.5056 49.5681 33.656 50.4177 33.656 51.4689C33.656 52.5201 34.5056 53.3697 35.5568 53.3697ZM47.7103 26.773C47.7103 27.5938 47.0479 28.2562 46.2271 28.2562C45.4063 28.2562 44.7439 27.5938 44.7439 26.773C44.7439 25.9522 45.4063 25.2898 46.2271 25.2898C47.0479 25.2898 47.7103 25.9522 47.7103 26.773ZM14.4463 34.837C14.9791 34.837 15.4255 34.405 15.4255 33.8578C15.4255 33.3106 14.9935 32.8786 14.4463 32.8786C13.9135 32.8786 13.4671 33.3106 13.4671 33.8578C13.4671 34.405 13.8991 34.837 14.4463 34.837ZM19.5871 24.6705L20.3503 23.9074L21.1135 24.6705L20.3503 25.4337L19.5871 24.6705ZM50.5184 18.1762L49.7552 18.9394L50.5184 19.7026L51.2816 18.9394L50.5184 18.1762ZM52.3184 37.1985L53.0816 36.4353L53.8448 37.1985L53.0816 37.9617L52.3184 37.1985ZM11.0336 39.0706L10.2704 39.8338L11.0336 40.597L11.7968 39.8338L11.0336 39.0706ZM40.7551 24.2818C40.7551 27.0178 38.5375 29.2498 35.7871 29.2498C33.0367 29.2498 30.8191 27.0178 30.8191 24.2818C30.8191 21.5458 33.0511 19.3138 35.7871 19.3138C38.5231 19.3138 40.7551 21.5458 40.7551 24.2818ZM10.5296 52.7362L12.0992 51.1666L16.2176 55.285L14.648 56.8546L10.5296 52.7362ZM15.3391 6.90104H12.9199V9.32023H15.3391V6.90104ZM8.08159 6.90104H10.5008V9.32023H8.08159V6.90104ZM55.9328 55.933V49.6114H53.4992V53.4994H49.8272V55.933H55.9328ZM8.08159 21.7618V15.4258H14.1872V17.8594H10.5152V21.7618H8.08159Z" fill="currentColor" />
</svg>
