<svg width="24" height="24" viewBox="0 0 24 24" xmlns="http://www.w3.org/2000/svg">
<path d="M18.0759 7.3946C14.9926 4.2018 10.0174 4.2018 6.93414 7.3946L3 11.4402L6.93414 15.6002C10.0074 18.793 14.9826 18.8034 18.0659 15.6106L18.0759 15.6002L22 11.4402L18.0759 7.3946ZM16.6544 14.0922C14.362 16.4738 10.638 16.4738 8.34563 14.0922L5.83298 11.4402L8.34563 8.861C10.6481 6.4898 14.352 6.4898 16.6544 8.861L19.167 11.4402L16.6544 14.0922Z" />
<path d="M14.7323 11.4407C14.7524 12.7199 13.7713 13.7807 12.54 13.8015C11.3087 13.8223 10.2877 12.8031 10.2676 11.5239C10.2476 10.2447 11.2286 9.18389 12.4599 9.16309C12.47 9.16309 12.49 9.16309 12.5 9.16309V11.4407H14.7323Z" />
</svg>
