<svg width="24" height="24" viewBox="0 0 24 24" xmlns="http://www.w3.org/2000/svg">
<path d="M13.0306 15.6519L14.7424 17.3608C14.0116 17.5806 13.2608 17.6906 12.5 17.6906C10.4078 17.6906 8.40569 16.8611 6.92413 15.3921L3 11.5047L5.91307 8.55664L8.30559 10.9351C8.28556 11.1149 8.28556 11.2848 8.30559 11.4647C8.30559 13.7832 10.1776 15.6719 12.5 15.6919C12.6802 15.6919 12.8504 15.6819 13.0306 15.6519Z" />
<path d="M22 11.505L18.0658 7.50766C16.5843 6.03864 14.5822 5.22918 12.5 5.23917C11.7392 5.23917 10.9884 5.3491 10.2576 5.56895L11.9694 7.26782C12.1496 7.25783 12.3198 7.25783 12.5 7.26782C14.8424 7.26782 16.7344 9.16656 16.7344 11.495C16.7344 12.2745 16.5242 13.034 16.1138 13.6935L6.43358 4L5.02209 5.41905L16.314 16.6915L17.0247 17.4011L18.6364 19L20.0479 17.5909L17.9457 15.5023L22 11.505Z" />
</svg>
