<svg width="18" height="17" viewBox="0 -0.5 18 17" fill="none" xmlns="http://www.w3.org/2000/svg">
<path fill-rule="evenodd" clip-rule="evenodd" d="M1.90749 11.7531C1.69946 12.2377 1.44127 12.6392 0.692951 13.1549C0.332259 13.4758 0.875047 13.8472 1.3852 13.8472C2.79114 13.8472 3.96768 13.2795 5.53871 11.7704H12.4612C13.6083 11.7704 14.538 10.8407 14.538 9.69369V2.07889C14.538 0.931746 13.6083 0.0021002 12.4612 0.0021002H11.7156C11.709 0.00192657 11.7026 0.00150789 11.6961 0.00108965L11.6961 0.00108947C11.6877 0.000544339 11.6793 0 11.6706 0H2.64821C2.64424 0 2.64042 0.000526102 2.6366 0.00105168L2.6366 0.00105175C2.63279 0.00157625 2.62899 0.0021002 2.62504 0.0021002H2.07745C0.930346 0.0021002 0.000700627 0.931746 0.000700627 2.07889V2.53708C0.000700627 2.53831 0.000525539 2.53944 0.000350416 2.54058L0.000350326 2.54058C0.000175165 2.54171 0 2.54284 0 2.54408V9.13323C0 9.13463 0.000176209 9.13595 0.000351889 9.13725L0.000352223 9.13726C0.000526741 9.13856 0.000700627 9.13985 0.000700627 9.14123V9.69369C0.000700627 10.7822 0.841448 11.6652 1.90749 11.7531ZM15.9609 14.2324C17.0938 13.932 17.9546 12.9455 18 11.7441V5.53358C18 4.20371 17.2821 3.24606 15.9225 3.11726V9.69369C15.9225 11.8185 14.7363 13.1549 11.769 13.1549H5.88487C5.60168 13.4578 5.08319 13.8244 4.50033 14.0618C4.85093 14.3591 5.59647 14.5394 6.23093 14.5394H12.4612C15.0208 16.9883 17.2596 16.1683 17.307 15.9239C16.4916 15.3234 16.1419 14.7471 15.9609 14.2324ZM2.72763 6.62058C2.53289 6.42584 2.42349 6.16172 2.42349 5.88631C2.42349 5.61091 2.53289 5.34679 2.72763 5.15205C2.92237 4.95731 3.18649 4.84791 3.4619 4.84791C3.7373 4.84791 4.00143 4.95731 4.19617 5.15205C4.3909 5.34679 4.50031 5.61091 4.50031 5.88631C4.50031 6.16172 4.3909 6.42584 4.19617 6.62058C4.00143 6.81532 3.7373 6.92473 3.4619 6.92473C3.18649 6.92473 2.92237 6.81532 2.72763 6.62058ZM10.0383 5.88631C10.0383 6.16172 10.1477 6.42584 10.3425 6.62058C10.5372 6.81532 10.8013 6.92473 11.0767 6.92473C11.3522 6.92473 11.6163 6.81532 11.811 6.62058C12.0058 6.42584 12.1152 6.16172 12.1152 5.88631C12.1152 5.61091 12.0058 5.34679 11.811 5.15205C11.6163 4.95731 11.3522 4.84791 11.0767 4.84791C10.8013 4.84791 10.5372 4.95731 10.3425 5.15205C10.1477 5.34679 10.0383 5.61091 10.0383 5.88631ZM6.53503 6.62058C6.34029 6.42584 6.23088 6.16172 6.23088 5.88631C6.23088 5.61091 6.34029 5.34679 6.53503 5.15205C6.72976 4.95731 6.99389 4.84791 7.26929 4.84791C7.5447 4.84791 7.80882 4.95731 8.00356 5.15205C8.1983 5.34679 8.3077 5.61091 8.3077 5.88631C8.3077 6.16172 8.1983 6.42584 8.00356 6.62058C7.80882 6.81532 7.5447 6.92473 7.26929 6.92473C6.99389 6.92473 6.72976 6.81532 6.53503 6.62058Z" fill="currentColor"/>
</svg>
