<svg width="18" height="18" viewBox="0 0 18 18" xmlns="http://www.w3.org/2000/svg">
<path d="M4.71086 11.4069H0.329143C0.113143 10.6354 0 9.83314 0 9C0 8.16685 0.113143 7.36457 0.329143 6.59314H4.71086C4.63886 7.37485 4.608 8.18743 4.608 9C4.608 9.80228 4.63886 10.6149 4.71086 11.4069Z" />
<path d="M4.92703 13.2068C5.18417 14.8834 5.61617 16.4057 6.19217 17.5577C3.97046 16.8274 2.11903 15.2434 1.04932 13.2068H4.92703Z" />
<path d="M6.19217 0.442261C5.61617 1.59426 5.18417 3.11655 4.92703 4.79312H1.04932C2.11903 2.75655 3.97046 1.17255 6.19217 0.442261Z" />
<path d="M11.2424 13.2068C10.7487 16.1383 9.78181 17.7943 9.13381 18H8.86638C8.21838 17.7943 7.25153 16.1383 6.75781 13.2068H11.2424Z" />
<path d="M11.2424 4.79314H6.75781C7.25153 1.86171 8.21838 0.205714 8.86638 0H9.13381C9.78181 0.205714 10.7487 1.86171 11.2424 4.79314Z" />
<path d="M11.4893 6.59314C11.5511 7.33371 11.5922 8.136 11.5922 9C11.5922 9.85371 11.5511 10.656 11.4893 11.4069H6.51106C6.44935 10.6663 6.4082 9.864 6.4082 9C6.4082 8.14628 6.44935 7.344 6.51106 6.59314H11.4893Z" />
<path d="M13.0732 13.2068H16.951C15.8812 15.2434 14.0298 16.8274 11.8081 17.5577C12.3841 16.4057 12.8161 14.8834 13.0732 13.2068Z" />
<path d="M13.2651 4.35086C13.008 2.67429 12.576 1.152 12 0C14.2217 0.730286 16.0731 2.31429 17.1429 4.35086H13.2651Z" />
<path d="M17.9999 9C17.9999 9.83314 17.8868 10.6354 17.6708 11.4069H13.2891C13.3611 10.6251 13.3919 9.81257 13.3919 9C13.3919 8.19771 13.3611 7.38514 13.2891 6.59314H17.6708C17.8868 7.36457 17.9999 8.16685 17.9999 9Z" />
</svg>
