<svg width="16" height="16" viewBox="0 0 16 16" xmlns="http://www.w3.org/2000/svg">
<path d="M9.28636 9.03079L9.46363 8.85351L9.28586 8.67674L8.95298 8.34575L8.77607 8.16983L8.59979 8.34638L7.56356 9.38423L6.61584 8.43651L7.65396 7.3984L7.83074 7.22162L7.65396 7.04484L7.32297 6.71385L7.14646 6.53734L6.96969 6.71357L5.92969 7.75036L4.97969 6.80036L4.80224 6.62291L4.62546 6.80103L3.64083 7.79319C3.64069 7.79333 3.64055 7.79346 3.64041 7.7936C2.49787 8.93461 2.39091 10.7287 3.32484 11.9908L0.323223 14.9924L0.146446 15.1692L0.323224 15.346L0.654217 15.677L0.830993 15.8538L1.00777 15.677L4.0094 12.6753C4.57628 13.0949 5.24949 13.3054 5.92377 13.3054C6.75093 13.3054 7.57676 12.9894 8.20646 12.3618C8.2065 12.3618 8.20654 12.3617 8.20658 12.3617L9.19934 11.3746L9.37713 11.1978L9.19985 11.0205L8.24824 10.0689L9.28636 9.03079ZM4.80367 7.9972L8.00301 11.1965L7.52308 11.6723L7.4602 11.7347C6.57408 12.5548 5.18686 12.5349 4.32511 11.6749C3.44489 10.7927 3.44499 9.36 4.3271 8.47788L4.32786 8.47712L4.80367 7.9972Z" />
<path d="M15.6767 1.00777L15.8534 0.830993L15.6767 0.654217L15.3457 0.323224L15.1689 0.146446L14.9921 0.323223L11.9905 3.32483C10.7284 2.3908 8.93599 2.49792 7.79332 3.63848C7.79327 3.63854 7.79321 3.63859 7.79316 3.63864L6.80053 4.62563L6.62275 4.8024L6.80003 4.97969L11.0202 9.19985L11.1976 9.3773L11.3744 9.19917L12.359 8.20702C12.3592 8.20688 12.3593 8.20674 12.3595 8.20659C13.502 7.06559 13.609 5.27152 12.675 4.00938L15.6767 1.00777ZM11.672 7.52308L11.1962 8.00301L7.99687 4.80367L8.47679 4.32786L8.53968 4.26552C9.42572 3.44543 10.8128 3.46529 11.6745 4.32511C12.555 5.20731 12.555 6.64013 11.6728 7.52232L11.672 7.52308Z" />
</svg>
