<svg width="57" height="80" viewBox="-11.5 0 80 80" fill="none" xmlns="http://www.w3.org/2000/svg">
<path d="M28.0007 58.4993L12.0007 69.9992C11.0007 70.4992 13.0007 70.4992 13.0007 70.4992H42.5007C44.0007 70.4992 42.5007 68.4992 42.5007 68.4992C38.0007 61.9993 34.0007 59.4993 31.5007 57.9993C29.0007 56.4993 28.0007 58.4993 28.0007 58.4993Z" />
<path d="M40.4998 14H15.4998C15.4998 14 13.4998 20.5 22.9998 27C22.9998 27 26.9998 29.5 27.9998 36V36.5V36C28.4998 29.5 32.9998 27 32.9998 27C42.4998 20.5 40.4998 14 40.4998 14Z" />
<path d="M38.5 31C49 23 50.5 12 50.5 7H53C55 7 56.5 5.5 56.5 3.5C56.5 1.5 55 0 53 0L4 0C2 0 0.5 1.5 0.5 3.5C0.5 5.5 2 7 4 7H6.5C6.5 12 8 23 18.5 31C22 33.5 24 36.5 24 40C24 45.5 19 49.5 18.5 49.5C17.5 50 6.5 58 6.5 73H4C2 73 0.5 74.5 0.5 76.5C0.5 78.5 2 80 4 80H53C55 80 56.5 78.5 56.5 76.5C56.5 74.5 55 73 53 73H50.5C50.5 58 39 50 38.5 49.5C38 49 33 45 33 40C33 36.5 34.5 33.5 38.5 31ZM30.5 40C30.5 46.5 36.5 51 37 51.5C37 51.5 48 59 48 73H8C8 59 19 51.5 19 51.5C19.5 51.5 25.5 46.5 25.5 40C25.5 36 23.5 32.5 19 29.5C10 22 8.5 11.5 8.5 7H48C48 11.5 46.5 21.5 37 29C33 32.5 30.5 36 30.5 40Z" />
</svg>
