<svg width="12" height="12" viewBox="0 0 12 12" fill="none" xmlns="http://www.w3.org/2000/svg">
<path fill-rule="evenodd" clip-rule="evenodd" d="M1.82791 2.94336C3.54528 2.00199 5.7064 2.60878 6.66305 4.29872H12V8.83547H10.8474V7.70128H9.69481V8.83547H8.54221V7.70128H7.38962H7.31641H7.25391H7.23702H6.66305C6.34033 8.26838 5.862 8.73906 5.2857 9.05664C3.56833 9.99801 1.40145 9.39122 0.450559 7.70128C-0.506095 6.01134 0.110544 3.88474 1.82791 2.94336ZM3.56257 8.36478C4.22531 8.36478 4.82466 8.09825 5.26265 7.67293C5.69487 7.24194 5.96573 6.65216 5.96573 6C5.96573 4.69568 4.88805 3.63522 3.56257 3.63522C2.23708 3.63522 1.15941 4.69568 1.15941 6C1.15941 7.30432 2.23708 8.36478 3.56257 8.36478ZM7.06646 6.56709H10.8589V5.43291H7.06646C7.13562 5.80719 7.13562 6.19281 7.06646 6.56709ZM2.74719 6.00228L3.56219 5.20029L4.37719 6.00228L3.56219 6.80426L2.74719 6.00228Z"/>
</svg>
