<svg width="32" height="32" viewBox="0 0 32 32" fill="none" xmlns="http://www.w3.org/2000/svg">
<path fill-rule="evenodd" clip-rule="evenodd" d="M17.9913 8.87031C17.8414 8.95495 17.6721 8.99944 17.4999 8.99946H13.4999C13.3277 8.99944 13.1584 8.95495 13.0085 8.87031C12.8585 8.78567 12.7329 8.66374 12.6439 8.51633L10.6439 5.20383C10.5524 5.05215 10.5027 4.87886 10.5001 4.70169C10.4975 4.52452 10.542 4.34984 10.6291 4.19552C10.7162 4.04121 10.8427 3.9128 10.9957 3.82344C11.1487 3.73408 11.3227 3.68698 11.4999 3.68696H13.2596L14.653 1.46821C14.743 1.32488 14.8679 1.20673 15.016 1.12485C15.1642 1.04296 15.3306 1 15.4999 1C15.6691 1 15.8356 1.04296 15.9837 1.12485C16.1318 1.20673 16.2568 1.32488 16.3468 1.46821L17.7402 3.68696H19.4999C19.6771 3.68698 19.8511 3.73408 20.0041 3.82344C20.1571 3.9128 20.2836 4.04121 20.3707 4.19552C20.4578 4.34984 20.5023 4.52452 20.4997 4.70169C20.497 4.87886 20.4474 5.05215 20.3558 5.20383L18.3558 8.51633C18.2668 8.66374 18.1413 8.78567 17.9913 8.87031ZM16.5876 7.44349C16.522 7.48053 16.4479 7.49999 16.3726 7.5H14.6225C14.5472 7.49999 14.4731 7.48053 14.4075 7.44349C14.3419 7.40646 14.287 7.35311 14.2481 7.28862L13.373 5.8393C13.333 5.77294 13.3112 5.69711 13.3101 5.6196C13.309 5.54208 13.3284 5.46565 13.3665 5.39814C13.4046 5.33062 13.46 5.27444 13.5269 5.23534C13.5939 5.19624 13.67 5.17563 13.7475 5.17562H14.5174L15.127 4.20485C15.1664 4.14214 15.2211 4.09045 15.2859 4.05462C15.3507 4.01879 15.4235 4 15.4976 4C15.5716 4 15.6444 4.01879 15.7092 4.05462C15.774 4.09045 15.8287 4.14214 15.8681 4.20485L16.4777 5.17562H17.2476C17.3251 5.17563 17.4013 5.19624 17.4682 5.23534C17.5351 5.27444 17.5905 5.33062 17.6286 5.39814C17.6667 5.46565 17.6862 5.54208 17.685 5.6196C17.6839 5.69711 17.6622 5.77294 17.6221 5.8393L16.7471 7.28862C16.7081 7.35311 16.6532 7.40646 16.5876 7.44349ZM28 28H29C29.6667 28 30 28.3333 30 29C30 29.6667 29.6667 30 29 30H28H26H23H21H18.9999H17H14H11.9999H10H8H5H3C2.33333 30 2 29.6667 2 29C2 28.3333 2.33333 28 3 28V18.9375C3.00058 18.4238 3.20489 17.9313 3.56812 17.5681C3.93135 17.2049 4.42382 17.0006 4.9375 17H8.0625C8.57618 17.0006 9.06865 17.2049 9.43188 17.5681C9.79511 17.9313 9.99942 18.4238 10 18.9375V28H11.9999V13.0451C12.0005 12.5029 12.2048 11.9831 12.568 11.5997C12.9312 11.2163 13.4237 11.0006 13.9374 11H17.0624C17.5761 11.0006 18.0685 11.2163 18.4318 11.5997C18.795 11.9831 18.9993 12.5029 18.9999 13.0451V28H21V20.9375C21.0006 20.4238 21.2049 19.9313 21.5681 19.5681C21.9313 19.2049 22.4238 19.0006 22.9375 19H26.0625C26.5762 19.0006 27.0687 19.2049 27.4319 19.5681C27.7951 19.9313 27.9994 20.4238 28 20.9375V28ZM26 28V21H23V28H26ZM8 19V28H5V19H8ZM17 28V13H14V28H17Z" fill="currentColor"/>
</svg>
