<svg width="16" height="16" viewBox="0 0 16 16" fill="none" xmlns="http://www.w3.org/2000/svg">
<path fill-rule="evenodd" clip-rule="evenodd" d="M8.67016 1.70867V0H6.96149V1.70867H8.67016ZM13.8786 2.91854L12.6704 4.12674L11.4622 2.91854L12.6704 1.71034L13.8786 2.91854ZM3.41734 7.75565C3.41734 5.36355 5.35668 3.41567 7.74885 3.41567C10.141 3.41567 12.0803 5.36355 12.0803 7.75565C12.0803 9.37888 11.1918 10.7885 9.8676 11.5318V12.5912H5.63006V11.5318C4.30585 10.7885 3.41734 9.37888 3.41734 7.75565ZM8.60318 10.2332C9.62838 9.8744 10.3717 8.90045 10.3717 7.75565C10.3717 6.30328 9.19267 5.12434 7.74885 5.12434C6.30502 5.12434 5.12601 6.30328 5.12601 7.75565C5.12601 8.90045 5.86928 9.8744 6.89451 10.2332V7.75565H8.60318V10.2332ZM5.62993 14.2913H9.87597V16H5.62993V14.2913ZM0 6.83301H1.70867V8.54168H0V6.83301ZM2.8276 11.3762L1.6194 12.5844L2.8276 13.7926L4.0358 12.5844L2.8276 11.3762ZM12.5882 13.879L11.38 12.6708L12.5882 11.4626L13.7964 12.6708L12.5882 13.879ZM13.7945 8.66641H15.5032V6.95774H13.7945V8.66641ZM2.92271 1.62023L4.13091 2.82843L2.92271 4.03663L1.71451 2.82843L2.92271 1.62023Z"/>
</svg>
