<svg width="16" height="16" viewBox="0 0 16 16" xmlns="http://www.w3.org/2000/svg">
<path d="M8.7 7.29962C9.5 8.09962 9.5 9.39962 8.7 10.1996L6.09999 12.7996C5.29999 13.5996 3.99999 13.5996 3.09999 12.7996C2.29999 11.9996 2.29999 10.6996 3.09999 9.79962L3.39998 9.49962C3.09998 8.79962 2.89998 7.99962 2.89998 7.19962L1.7 8.39962C0.1 9.99962 0.1 12.5996 1.7 14.1996C3.3 15.7996 5.89999 15.7996 7.49999 14.1996L10.1 11.5996C10.4 11.2996 10.6 10.9996 10.8 10.6996C11.7 9.19962 11.5 7.09962 10.1 5.79962L8.7 7.29962Z" />
<path d="M7.29989 8.69961C6.49989 7.89961 6.49989 6.59961 7.29989 5.79961L9.8999 3.19961C10.6999 2.39961 11.9999 2.39961 12.8999 3.19961C13.6999 3.99961 13.6999 5.29961 12.8999 6.19961L12.5999 6.49961C12.8999 7.19961 13.0999 7.99961 13.0999 8.79961L14.2999 7.59961C15.8999 5.99961 15.8999 3.39961 14.2999 1.79961C12.6999 0.199609 10.0999 0.199609 8.4999 1.79961L5.8999 4.39961C5.5999 4.69961 5.39991 4.99961 5.19991 5.29961C4.29991 6.79961 4.4999 8.89961 5.8999 10.1996L7.29989 8.69961Z" />
</svg>
