<svg width="16" height="16" viewBox="0 0 16 16" fill="none" xmlns="http://www.w3.org/2000/svg">
<path fill-rule="evenodd" clip-rule="evenodd" d="M4.4 4V6.4H3.6C2.74532 6.4 2 7.0211 2 7.86667V14.5333C2 15.3789 2.74532 16 3.6 16H13.2C14.0547 16 14.8 15.3789 14.8 14.5333V7.86667C14.8 7.0211 14.0547 6.4 13.2 6.4H12.4V4C12.4 1.79086 10.6091 0 8.4 0C6.19086 0 4.4 1.79086 4.4 4ZM10.8 4V6.4H6V4C6 2.67452 7.07452 1.6 8.4 1.6C9.72548 1.6 10.8 2.67452 10.8 4ZM3.6 14.4V7.99998H13.2V14.4H3.6ZM9.2 11.2C9.2 11.6418 8.84183 12 8.4 12C7.95817 12 7.6 11.6418 7.6 11.2C7.6 10.7582 7.95817 10.4 8.4 10.4C8.84183 10.4 9.2 10.7582 9.2 11.2Z"/>
</svg>
