<svg width="13" height="8" viewBox="0 0 13 8" fill="none" xmlns="http://www.w3.org/2000/svg">
<path d="M0.00561523 4C0.00561523 5.06087 0.424934 6.07828 1.17133 6.82843C1.91772 7.57857 2.93005 8 3.98561 8C5.04117 8 6.05349 7.57857 6.79989 6.82843C7.54628 6.07828 7.9656 5.06087 7.9656 4C7.9656 2.93913 7.54628 1.92172 6.79989 1.17157C6.05349 0.421427 5.04117 0 3.98561 0C2.93005 0 1.91772 0.421427 1.17133 1.17157C0.424934 1.92172 0.00561523 2.93913 0.00561523 4Z" fill="#EA001B"/>
<path d="M5.04004 4C5.04004 4.52529 5.14298 5.04543 5.343 5.53073C5.54301 6.01604 5.83617 6.45699 6.20575 6.82843C6.57533 7.19986 7.01408 7.4945 7.49695 7.69552C7.97983 7.89654 8.49737 8 9.02003 8C9.54269 8 10.0602 7.89654 10.5431 7.69552C11.026 7.4945 11.4647 7.19986 11.8343 6.82843C12.2039 6.45699 12.497 6.01604 12.6971 5.53073C12.8971 5.04543 13 4.52529 13 4C13 3.47471 12.8971 2.95457 12.6971 2.46927C12.497 1.98396 12.2039 1.54301 11.8343 1.17157C11.4647 0.800138 11.026 0.5055 10.5431 0.304482C10.0602 0.103463 9.54269 0 9.02003 0C8.49737 0 7.97983 0.103463 7.49695 0.304482C7.01408 0.5055 6.57533 0.800138 6.20575 1.17157C5.83617 1.54301 5.54301 1.98396 5.343 2.46927C5.14298 2.95457 5.04004 3.47471 5.04004 4Z" fill="#F79F1A"/>
<path d="M5.04749 4.00753C5.04749 5.2526 5.61359 6.36484 6.50107 7.09827C7.39924 6.36484 7.97308 5.24603 7.97308 3.9926C7.97308 2.74753 7.40697 1.63529 6.51949 0.901855C5.62132 1.63529 5.04749 2.7538 5.04749 4.00753Z" fill="#FF5F01"/>
</svg>
