<svg width="341" height="341" viewBox="0 -68.5 341 341" fill="none" xmlns="http://www.w3.org/2000/svg">
<path fill-rule="evenodd" clip-rule="evenodd" d="M125.73 3.23996L123.82 1.32996L121.91 3.23996L123.82 5.14996L125.73 3.23996ZM112.33 16.64L110.43 14.73L112.33 12.82L114.24 14.73L112.33 16.64ZM125.73 14.73L123.82 12.82L121.91 14.73L123.82 16.64L125.73 14.73ZM123.82 24.33L125.73 26.24L123.82 28.15L121.91 26.24L123.82 24.33ZM135.3 12.79L137.21 14.7L135.32 16.62L133.41 14.71L135.3 12.79Z" fill="#F0B90B"/>
<path fill-rule="evenodd" clip-rule="evenodd" d="M218.91 178.15L217 176.24L215.09 178.15L217 180.06L218.91 178.15ZM205.52 191.52L203.61 189.64L205.52 187.73L207.41 189.64L205.52 191.52ZM218.91 189.64L217 187.73L215.09 189.64L217 191.55L218.91 189.64ZM217 199.24L218.91 201.15L217 203.06L215.09 201.15L217 199.24ZM228.51 187.73L230.41 189.64L228.49 191.55L226.58 189.64L228.51 187.73Z" fill="#F0B90B"/>
<path fill-rule="evenodd" clip-rule="evenodd" d="M63.17 157.56H0.5V131.07L53.04 25.97H83.62L31.08 131.07H63.17V102.42H89.87V131.07H104.08V157.56H89.87V179.31H63.17V157.56Z"/>
<path fill-rule="evenodd" clip-rule="evenodd" d="M123.79 70.3401V134.94C123.79 164.23 145.54 180.64 170.3 180.6C195.28 180.6 217.03 164.23 217.03 134.94V70.3401C217.03 41.0501 195.3 24.6801 170.3 24.6801C145.54 24.6801 123.79 41.0501 123.79 70.3401ZM189.04 70.7301V134.73C189.04 147.64 181.5 155.4 170.3 155.4C159.32 155.4 151.78 147.65 151.78 134.73V70.7301C151.78 57.8401 159.3 49.8401 170.3 49.8401C181.5 49.8401 189.04 57.8101 189.04 70.7301Z"/>
<path fill-rule="evenodd" clip-rule="evenodd" d="M299.41 157.56H236.74V131.07L289.28 25.97H319.86L267.32 131.07H299.41V102.42H326.11V131.07H340.32V157.56H326.11V179.31H299.41V157.56Z"/>
<path fill-rule="evenodd" clip-rule="evenodd" d="M123.3 106.56H124.3V88.14H123.3V106.56ZM170.3 180.94C157.6 180.94 145.92 176.68 137.42 168.94C128.17 160.54 123.29 148.72 123.29 134.76V129.3H124.29V134.76C124.29 156.51 138.69 179.92 170.29 179.92C186.39 179.92 200.35 173.22 208.6 161.54C213.86 154.08 216.52 145.07 216.52 134.76V88.32H217.52V134.78C217.52 145.3 214.8 154.51 209.41 162.13C200.99 174.08 186.73 180.94 170.3 180.94ZM170.3 155.74C158.75 155.74 151.3 147.43 151.3 134.56V118.28H152.3V134.56C152.3 146.82 159.38 154.74 170.3 154.74C181.55 154.74 188.54 147.01 188.54 134.56V118.28H189.54V134.56C189.54 147.43 181.99 155.74 170.3 155.74Z" fill="#CCCCCC"/>
<path fill-rule="evenodd" clip-rule="evenodd" d="M299.41 157.56H236.74V131.07L289.28 25.98H319.86L267.32 131.07H299.41V102.43H326.11V131.07H340.32V157.56H326.11V179.31H299.41V157.56Z"/>
<path fill-rule="evenodd" clip-rule="evenodd" d="M298.9 179.81H326.61V158.06H340.82V130.57H326.61V101.93H298.9V130.57H268.12L320.67 25.48H288.97L236.24 130.95V158.06H298.9V179.81ZM325.61 178.81H299.9V157.06H237.24V131.19L289.59 26.48H319.05L266.51 131.57H299.9V102.93H325.61V131.57H339.82V157.06H325.61V178.81Z" fill="#C1C1C1"/>
<path fill-rule="evenodd" clip-rule="evenodd" d="M123.58 70.97C123.58 45.1562 144.506 24.23 170.32 24.23C196.134 24.23 217.06 45.1562 217.06 70.97C217.06 83.3662 212.136 95.2547 203.37 104.02C194.605 112.786 182.716 117.71 170.32 117.71C144.506 117.71 123.58 96.7838 123.58 70.97ZM207.06 70.97C207.06 50.679 190.611 34.23 170.32 34.23C150.041 34.2575 133.608 50.6905 133.58 70.97C133.58 91.2609 150.029 107.71 170.32 107.71C190.611 107.71 207.06 91.2609 207.06 70.97Z"/>
<path fill-rule="evenodd" clip-rule="evenodd" d="M132.9 71.31C132.9 50.5938 149.694 33.8 170.41 33.8C191.126 33.8 207.92 50.5938 207.92 71.31C207.92 92.0262 191.126 108.82 170.41 108.82C149.694 108.82 132.9 92.0262 132.9 71.31ZM205.41 71.3C205.41 51.9701 189.74 36.3 170.41 36.3C151.08 36.3 135.41 51.9701 135.41 71.3C135.41 90.63 151.08 106.3 170.41 106.3C189.74 106.3 205.41 90.63 205.41 71.3Z" fill="#162837"/>
<path fill-rule="evenodd" clip-rule="evenodd" d="M123.78 71.31C123.78 45.557 144.657 24.68 170.41 24.68V24.64C182.784 24.64 194.651 29.5583 203.397 38.3118C212.143 47.0652 217.051 58.936 217.04 71.31C217.04 97.063 196.163 117.94 170.41 117.94C144.657 117.94 123.78 97.063 123.78 71.31ZM211.188 54.4153C204.354 37.9253 188.26 27.176 170.41 27.18C146.053 27.2131 126.318 46.953 126.29 71.31C126.29 89.1598 137.043 105.252 153.535 112.082C170.026 118.912 189.008 115.134 201.628 102.511C214.248 89.8879 218.022 70.9052 211.188 54.4153Z" fill="#162837"/>
<rect x="131.086" y="108.888" width="7.76" height="2.5" transform="rotate(-45 131.086 108.888)" fill="#162837"/>
<rect x="94.7258" y="139.393" width="47.28" height="10.76" transform="rotate(-45 94.7258 139.393)" fill="url(#paint0_linear)"/>
<rect x="90.7712" y="143.587" width="2.5" height="10.46" transform="rotate(-45 90.7712 143.587)" fill="#162837"/>
<path fill-rule="evenodd" clip-rule="evenodd" d="M180.67 59.05L182.68 61.07L172.44 71.31L182.68 81.55L180.67 83.56L170.43 73.32L160.19 83.56L158.18 81.55L168.42 71.31L158.18 61.07L160.19 59.05L170.43 69.31L180.67 59.05V59.05Z" fill="#212833"/>
<path fill-rule="evenodd" clip-rule="evenodd" d="M173.16 2.49C173.98 2.52 174.8 2.57 175.61 2.63L175.79 0.13C175.692 0.122982 175.593 0.115826 175.495 0.108662C174.751 0.0545816 174 0 173.25 0L173.16 2.49ZM180.98 3.22C180.17 3.1 179.36 2.99 178.55 2.9L178.83 0.41C179.68 0.51 180.52 0.62 181.35 0.75L180.98 3.22ZM183.88 3.7C184.69 3.86 185.49 4.03 186.28 4.22L186.85 1.78C186.02 1.59 185.2 1.41 184.36 1.25L183.88 3.7ZM191.49 5.65C190.71 5.4 189.92 5.17 189.13 4.94001L189.13 4.94L189.81 2.54C190.63 2.77 191.44 3.01 192.24 3.27L191.49 5.65ZM194.27 6.6C195.04 6.89 195.8 7.18 196.56 7.49L197.5 5.18C196.72 4.86 195.93 4.55 195.13 4.26L194.27 6.6ZM201.46 9.72C200.73 9.36 200 9 199.25 8.66L200.3 6.39C201.07 6.74 201.83 7.11 202.59 7.49L201.46 9.72ZM204.06 11.1C204.77 11.5 205.47 11.91 206.17 12.34L207.47 10.2C206.75 9.76 206.02 9.33 205.28 8.92L204.06 11.1ZM210.144 14.9574L210.144 14.9574L210.143 14.9574C209.65 14.5958 209.157 14.2352 208.67 13.94L210.06 11.86C210.402 12.0862 210.739 12.3264 211.074 12.5648C211.434 12.8217 211.792 13.0766 212.15 13.31L210.67 15.34C210.495 15.2144 210.319 15.086 210.144 14.9577L210.144 14.9577L210.144 14.9576L210.144 14.9576L210.144 14.9575L210.144 14.9575L210.144 14.9574ZM214.06 17.9614C214.347 18.1906 214.634 18.4191 214.92 18.66L216.56 16.72C216.353 16.553 216.147 16.386 215.941 16.2194C215.481 15.847 215.023 15.4761 214.56 15.11L213.02 17.11C213.369 17.41 213.715 17.6862 214.06 17.9614L214.06 17.9614ZM218.92 22.31C218.34 21.73 217.75 21.17 217.15 20.61L218.85 18.78C219.47 19.35 220.08 19.94 220.68 20.54L218.92 22.31ZM220.97 24.48C221.53 25.08 222.07 25.69 222.6 26.31L224.5 24.68C223.95 24.04 223.38 23.4 222.81 22.78L220.97 24.48ZM225.97 30.54C225.796 30.3063 225.62 30.0738 225.444 29.8404C225.121 29.4146 224.796 28.9857 224.48 28.54L226.48 27C226.728 27.3091 226.963 27.6225 227.198 27.9362L227.198 27.9363L227.198 27.9364L227.198 27.9365L227.199 27.9366L227.199 27.9367L227.199 27.9367L227.199 27.9368L227.199 27.9369L227.199 27.937L227.199 27.9371L227.199 27.9372L227.199 27.9372C227.466 28.2931 227.733 28.6494 228.02 29L225.97 30.54ZM227.64 32.95C228.09 33.64 228.53 34.32 228.97 35.02L231.09 33.71C230.65 32.98 230.19 32.27 229.72 31.57L227.64 32.95ZM231.62 39.73C231.25 39 230.86 38.28 230.46 37.56L232.64 36.34C233.06 37.08 233.46 37.83 233.85 38.59L231.62 39.73ZM232.9 42.38C233.26 43.13 233.59 43.88 233.9 44.64L236.18 43.71C235.87 42.93 235.53 42.15 235.18 41.38L232.9 42.38ZM235.78 49.72C235.53 48.94 235.26 48.16 234.98 47.39L237.33 46.53C237.62 47.33 237.9 48.13 238.16 48.94L235.78 49.72ZM236.64 52.54C236.86 53.32 237.06 54.12 237.25 54.91L239.68 54.33C239.48 53.5 239.27 52.68 239.04 51.87L236.64 52.54ZM238.3 60.21C238.18 59.4 238.03 58.59 237.88 57.79L240.33 57.31C240.49 58.14 240.64 58.98 240.77 59.82L238.3 60.21ZM238.7 63.13C238.79 63.94 238.87 64.75 238.94 65.57L241.43 65.38C241.36 64.53 241.28 63.68 241.19 62.84L238.7 63.13ZM239.14 70.96H241.64C241.64 70.6763 241.639 70.3937 241.638 70.1115C241.635 69.5481 241.633 68.9863 241.64 68.42L239.14 68.51V70.96Z" fill="#CCCCCC"/>
<path fill-rule="evenodd" clip-rule="evenodd" d="M327.75 63.41L325.84 61.5L323.93 63.41L325.84 65.32L327.75 63.41ZM314.35 76.81L312.44 74.91L314.35 73L316.26 74.91L314.35 76.81ZM327.75 74.91L325.84 73L323.93 74.91L325.84 76.81L327.75 74.91ZM325.84 84.5L327.75 86.41L325.84 88.32L323.93 86.41L325.84 84.5ZM337.32 72.97L339.23 74.88L337.32 76.81L335.41 74.91L337.32 72.97Z" fill="#E0E0E0"/>
<path fill-rule="evenodd" clip-rule="evenodd" d="M90.37 179.81H62.67V158.05H0V130.95L17.3 97.27L52.73 25.47H84.43L31.89 130.57H62.67V101.92H90.37V130.57H99.31V131.57H89.37V102.92H63.67V131.57H30.27L82.82 26.47H53.35L18.19 97.72L1 131.19V157.05H63.67V178.81H89.37V157.05H103.58V149.2H104.58V158.05H90.37V179.81V179.81Z" fill="#CCCCCC"/>
<rect x="19.3721" y="160.899" width="2.7" height="2.7" transform="rotate(45 19.3721 160.899)" fill="#E0E0E0"/>
<rect x="30.8496" y="160.896" width="2.7" height="2.7" transform="rotate(45 30.8496 160.896)" fill="#E0E0E0"/>
<rect x="30.8508" y="172.405" width="2.7" height="2.7" transform="rotate(45 30.8508 172.405)" fill="#E0E0E0"/>
<rect x="30.853" y="149.443" width="2.7" height="2.7" transform="rotate(45 30.853 149.443)" fill="#E0E0E0"/>
<rect x="42.3372" y="160.894" width="2.7" height="2.7" transform="rotate(45 42.3372 160.894)" fill="#E0E0E0"/>
<defs>
<linearGradient id="paint0_linear" x1="34.9336" y1="139.189" x2="36.5171" y2="169.762" gradientUnits="userSpaceOnUse">
<stop stop-color="#F0B90B"/>
<stop offset="0.28" stop-color="#F1BC0F"/>
<stop offset="0.57" stop-color="#F4C41C"/>
<stop offset="0.86" stop-color="#F8D230"/>
<stop offset="0.99" stop-color="#FBDA3C"/>
</linearGradient>
</defs>
</svg>
