<svg width="362" height="362" viewBox="0 -63 362 362" fill="none" xmlns="http://www.w3.org/2000/svg">
<path fill-rule="evenodd" clip-rule="evenodd" d="M176.88 149.787H179.38V147.287H176.88V149.787ZM179.38 155.287H176.88V152.787H179.38V155.287ZM176.88 160.787H179.38V158.287H176.88V160.787ZM176.88 166.287H179.38V163.787H176.88V166.287Z" fill="#162837"/>
<path fill-rule="evenodd" clip-rule="evenodd" d="M176.88 195.257H179.38V192.757H176.88V195.257ZM179.38 200.757H176.88V198.287H179.38V200.757ZM176.88 206.257H179.38V203.757H176.88V206.257ZM176.88 211.757H179.38V209.287H176.88V211.757Z" fill="#162837"/>
<rect x="178.244" y="235.935" width="10.98" height="10.98" transform="rotate(-135 178.244 235.935)" fill="url(#paint0_linear)"/>
<rect x="178.241" y="15.5281" width="10.98" height="10.98" transform="rotate(-135 178.241 15.5281)" fill="url(#paint1_linear)"/>
<rect x="177.21" y="24.1674" width="2.5" height="12.39" fill="#162837"/>
<rect x="177.21" y="66.7673" width="2.5" height="22.36" fill="#162837"/>
<rect x="236.87" y="62.9762" width="2.7" height="2.7" transform="rotate(45 236.87 62.9762)" fill="#E0E0E0"/>
<rect x="248.355" y="62.9808" width="2.7" height="2.7" transform="rotate(45 248.355 62.9808)" fill="#E0E0E0"/>
<rect x="248.363" y="74.4825" width="2.7" height="2.7" transform="rotate(45 248.363 74.4825)" fill="#E0E0E0"/>
<rect x="248.365" y="51.5103" width="2.7" height="2.7" transform="rotate(45 248.365 51.5103)" fill="#E0E0E0"/>
<rect x="259.842" y="62.9784" width="2.7" height="2.7" transform="rotate(45 259.842 62.9784)" fill="#E0E0E0"/>
<rect x="108.511" y="191.437" width="2.7" height="2.7" transform="rotate(45 108.511 191.437)" fill="#E0E0E0"/>
<rect x="119.989" y="191.434" width="2.7" height="2.7" transform="rotate(45 119.989 191.434)" fill="#E0E0E0"/>
<rect x="119.987" y="202.936" width="2.7" height="2.7" transform="rotate(45 119.987 202.936)" fill="#E0E0E0"/>
<rect x="119.989" y="179.964" width="2.7" height="2.7" transform="rotate(45 119.989 179.964)" fill="#E0E0E0"/>
<rect x="131.473" y="191.439" width="2.7" height="2.7" transform="rotate(45 131.473 191.439)" fill="#E0E0E0"/>
<path fill-rule="evenodd" clip-rule="evenodd" d="M28.35 183.107C18.85 173.387 16.7 162.167 15.84 151.167H43.89C45.4 163.247 51.01 170.167 62.66 170.167C68.27 170.167 72.59 168.657 76.04 165.167C81.04 160.167 81.87 152.217 81.87 142.287C81.87 124.597 76.69 114.667 63.31 114.667C51.66 114.667 46.69 121.357 44.75 127.187H19.07V40.4673H106.68V65.7173H44.53V98.7173C48.63 94.8373 57.27 90.9473 67.62 90.9473C80.36 90.9473 90.07 95.0473 96.32 101.307C108.41 113.397 109.92 127.847 109.92 142.307C109.92 159.787 107.76 171.657 96.54 182.877C89.63 189.787 78.41 195.397 62.66 195.397C46.69 195.407 35.04 189.797 28.35 183.107Z"/>
<path fill-rule="evenodd" clip-rule="evenodd" d="M28 183.457C35.91 191.367 48.5401 195.907 62.66 195.907C76.57 195.907 88.73 191.407 96.89 183.237C108.26 171.867 110.42 160.087 110.42 142.317C110.42 128.967 109.36 113.647 96.68 100.967C89.81 94.0973 79.76 90.4573 67.62 90.4573C57.86 90.4573 49.47 93.9473 45.03 97.6173V66.2173H107.18V39.9673H18.57V127.717H45L45.12 127.367C46.97 121.817 51.6101 115.197 63.2001 115.197C75.5201 115.197 81.26 123.817 81.26 142.317C81.26 152.427 80.29 160.127 75.58 164.837C72.32 168.127 68.18 169.657 62.58 169.657C51.84 169.657 45.86 163.587 44.3 151.107V150.667H15.3L15.35 151.207C16.2 162.107 18.32 173.557 28 183.457ZM62.7101 194.907C48.8101 194.907 36.43 190.477 28.71 182.757C19.41 173.287 17.24 162.217 16.38 151.657H43.43C45.15 164.447 51.44 170.657 62.64 170.657C68.52 170.657 72.89 169.037 76.3701 165.547C81.37 160.587 82.37 152.677 82.37 142.317C82.37 123.137 76.3101 114.197 63.3101 114.197C50.78 114.197 46.1 121.877 44.39 126.717H19.57V40.9673H106.23V65.2173H44.08V99.8873L44.93 99.0873C48.94 95.2973 57.53 91.4573 67.6701 91.4573C79.54 91.4573 89.34 94.9873 96.0201 101.667C108.47 114.077 109.47 129.157 109.47 142.317C109.47 159.817 107.36 171.407 96.2401 182.537C88.26 190.507 76.3501 194.907 62.7101 194.907Z" fill="#C1C1C1"/>
<path fill-rule="evenodd" clip-rule="evenodd" d="M131.52 84.9174V149.657C131.52 179.007 153.32 195.407 178.13 195.407C203.16 195.407 224.96 179.007 224.96 149.657V84.9174C224.96 55.5674 203.13 39.1674 178.13 39.1674C153.32 39.1674 131.52 55.5674 131.52 84.9174ZM196.91 85.3474V149.437C196.91 162.387 189.35 170.157 178.13 170.157C167.13 170.157 159.57 162.387 159.57 149.437V85.3474C159.57 72.4174 167.13 64.4174 178.13 64.4174C189.35 64.4174 196.91 72.4074 196.91 85.3474Z"/>
<path fill-rule="evenodd" clip-rule="evenodd" d="M145.18 183.907C153.7 191.637 165.4 195.907 178.13 195.907C200.93 195.907 225.46 181.427 225.46 149.657V84.9174C225.46 53.1474 200.93 38.6674 178.13 38.6674C165.4 38.6674 153.7 42.9274 145.18 50.6674C135.92 59.0874 131.02 70.9174 131.02 84.9174V149.657C131.02 163.647 135.92 175.487 145.18 183.907ZM132.02 84.9174C132.02 53.8274 155.92 39.6674 178.13 39.6674C200.44 39.6674 224.46 53.8274 224.46 84.9174V149.657C224.46 180.747 200.44 194.907 178.13 194.907C146.45 194.907 132.02 171.447 132.02 149.657V84.9174ZM178.13 170.667C166.55 170.667 159.07 162.337 159.07 149.447V85.3474C159.07 72.3474 166.55 63.9174 178.13 63.9174C189.71 63.9174 197.41 72.3274 197.41 85.3474V149.437C197.41 162.287 189.84 170.657 178.13 170.657V170.667ZM160.07 85.3574C160.07 72.9274 167.13 64.9274 178.13 64.9274V64.9174C189.24 64.9174 196.41 72.9374 196.41 85.3474V149.447C196.41 161.917 189.4 169.667 178.13 169.667C167.16 169.667 160.07 161.727 160.07 149.447V85.3574Z" fill="#C1C1C1"/>
<path fill-rule="evenodd" clip-rule="evenodd" d="M249.17 84.9174V149.657C249.17 179.007 270.97 195.407 295.78 195.407C320.81 195.407 342.61 179.007 342.61 149.657V84.9174C342.61 55.5674 320.78 39.1674 295.78 39.1674C270.97 39.1674 249.17 55.5674 249.17 84.9174ZM314.56 85.3474V149.437C314.56 162.387 307 170.157 295.78 170.157C284.78 170.157 277.22 162.387 277.22 149.437V85.3474C277.22 72.4174 284.78 64.4174 295.78 64.4174C307 64.4174 314.56 72.4074 314.56 85.3474Z"/>
<path fill-rule="evenodd" clip-rule="evenodd" d="M248.62 149.657C248.62 163.647 253.52 175.487 262.78 183.907C271.35 191.637 283.05 195.907 295.78 195.907C318.58 195.907 343.11 181.427 343.11 149.657V84.9174C343.11 53.1474 318.58 38.6674 295.78 38.6674C283 38.6674 271.3 42.9274 262.78 50.6674C253.52 59.0874 248.62 70.9174 248.62 84.9174V149.657ZM249.67 84.9174C249.67 53.8274 273.57 39.6674 295.78 39.6674C318.09 39.6674 342.11 53.8274 342.11 84.9174V149.657C342.11 180.747 318.09 194.907 295.78 194.907C264.1 194.907 249.67 171.447 249.67 149.657V84.9174ZM295.78 170.667C284.2 170.667 276.72 162.337 276.72 149.447V85.3474C276.72 72.3474 284.2 63.9174 295.78 63.9174C307.36 63.9174 315.06 72.3274 315.06 85.3474V149.437C315.06 162.287 307.49 170.657 295.78 170.657V170.667ZM277.72 85.3574C277.72 72.9274 284.78 64.9274 295.78 64.9274V64.9174C306.88 64.9174 314.06 72.9374 314.06 85.3474V149.447C314.06 161.917 307.05 169.667 295.78 169.667C284.81 169.667 277.72 161.727 277.72 149.447V85.3574Z" fill="#C1C1C1"/>
<path fill-rule="evenodd" clip-rule="evenodd" d="M178.24 149.087C196.128 149.087 210.63 134.586 210.63 116.697C210.63 98.8089 196.128 84.3074 178.24 84.3074C160.351 84.3074 145.85 98.8089 145.85 116.697C145.85 134.586 160.351 149.087 178.24 149.087Z" fill="url(#paint2_linear)"/>
<rect x="176.66" y="128.347" width="3.16" height="3.16" fill="#212833"/>
<rect x="176.66" y="101.897" width="3.16" height="23.29" fill="#212833"/>
<path fill-rule="evenodd" clip-rule="evenodd" d="M15.3 78.9774L13.39 77.0674L11.48 78.9774L13.39 80.8874L15.3 78.9774ZM1.91 92.3774L0 90.4674L1.91 88.5674L3.82 90.4674L1.91 92.3774ZM15.3 90.4674L13.39 88.5674L11.48 90.4674L13.39 92.3774L15.3 90.4674ZM13.39 100.067L15.3 101.977L13.39 103.887L11.48 101.977L13.39 100.067ZM24.87 88.5374L26.78 90.4374L24.87 92.3474L22.96 90.4374L24.87 88.5374Z" fill="#F0B90B"/>
<path fill-rule="evenodd" clip-rule="evenodd" d="M349.92 115.037L348.01 113.127L346.1 115.037L348.01 116.947L349.92 115.037ZM336.53 128.447L334.62 126.537L336.53 124.627L338.43 126.537L336.53 128.447ZM349.92 126.537L348.01 124.627L346.1 126.537L348.01 128.447L349.92 126.537ZM348.01 136.127L349.92 138.037L348.01 139.947L346.1 138.037L348.01 136.127ZM359.49 124.597L361.4 126.507L359.49 128.417L357.58 126.507L359.49 124.597Z" fill="#E0E0E0"/>
<defs>
<linearGradient id="paint0_linear" x1="172.751" y1="241.422" x2="183.732" y2="252.403" gradientUnits="userSpaceOnUse">
<stop stop-color="#F0B90B"/>
<stop offset="0.28" stop-color="#F1BC0F"/>
<stop offset="0.57" stop-color="#F4C41C"/>
<stop offset="0.86" stop-color="#F8D230"/>
<stop offset="0.99" stop-color="#FBDA3C"/>
</linearGradient>
<linearGradient id="paint1_linear" x1="172.761" y1="21.0287" x2="183.742" y2="32.0101" gradientUnits="userSpaceOnUse">
<stop stop-color="#F0B90B"/>
<stop offset="0.28" stop-color="#F1BC0F"/>
<stop offset="0.57" stop-color="#F4C41C"/>
<stop offset="0.86" stop-color="#F8D230"/>
<stop offset="0.99" stop-color="#FBDA3C"/>
</linearGradient>
<linearGradient id="paint2_linear" x1="178.249" y1="162.509" x2="224.055" y2="116.703" gradientUnits="userSpaceOnUse">
<stop stop-color="#F0B90B"/>
<stop offset="0.28" stop-color="#F1BC0F"/>
<stop offset="0.57" stop-color="#F4C41C"/>
<stop offset="0.86" stop-color="#F8D230"/>
<stop offset="0.99" stop-color="#FBDA3C"/>
</linearGradient>
</defs>
</svg>
