<svg width="16" height="16" viewBox="0 0 16 16" fill="none" xmlns="http://www.w3.org/2000/svg">
<path d="M15.5562 9.76114C15.5368 9.62683 15.4621 9.51302 15.3564 9.44167L11.6687 6.66228L13.7598 3.78404C13.8325 3.68446 13.8618 3.56028 13.8424 3.4388C13.6044 1.95891 12.3449 0.884766 10.8479 0.884766C10.6862 0.884766 10.5228 0.897855 10.362 0.923616C10.2325 0.944963 10.1231 1.0177 10.0537 1.11975L7.93246 3.84696L4.29435 1.10541C4.19678 1.03159 4.07532 1.00018 3.9516 1.0169C3.81728 1.03657 3.7035 1.11133 3.63212 1.21705L0.850247 4.90805C0.696708 5.11193 0.737348 5.40187 0.941476 5.55566L4.51244 8.24647L3.13486 10.0185C3.08231 10.0856 3.04768 10.1689 3.03944 10.2599L2.12645 14.5736C2.12013 14.6022 2.1165 14.6352 2.1165 14.669C2.1165 14.9244 2.32355 15.1315 2.57898 15.1315C2.6449 15.1315 2.71128 15.1175 2.77336 15.0886L6.84404 13.2034C6.94058 13.1583 7.01697 13.0835 7.06299 12.991L8.39317 11.1708L12.0229 13.9063C12.0991 13.9644 12.1956 13.9994 12.3003 13.9994C12.3004 13.9994 12.3006 13.9994 12.3007 13.9994C12.4411 13.9994 12.5793 13.9359 12.6705 13.8153L15.4677 10.1039C15.5258 10.0274 15.5607 9.93052 15.5607 9.8255C15.5607 9.8028 15.5591 9.78047 15.5559 9.75864L15.5562 9.76114ZM10.6826 1.81597C11.7163 1.7383 12.6457 2.41772 12.8923 3.40493L12.0008 4.63191C11.785 4.20438 11.4686 3.83178 11.0692 3.54335C10.6748 3.25801 10.2274 3.07569 9.75974 3.0032L10.6826 1.81597ZM1.86726 5.09525L4.10738 2.12238L4.71218 2.57816L4.24511 3.19808C4.09155 3.40196 4.13221 3.6919 4.33632 3.84565C4.41248 3.90372 4.509 3.93869 4.61366 3.93869C4.61379 3.93869 4.61395 3.93869 4.61408 3.93869C4.75453 3.93869 4.89317 3.87525 4.98392 3.75442L5.45078 3.13477L6.1348 3.65023L5.69878 4.22856C5.54524 4.43246 5.58588 4.7224 5.79001 4.87617C5.8661 4.93437 5.96258 4.96943 6.06724 4.96943C6.06743 4.96943 6.0676 4.96943 6.06779 4.96943C6.20824 4.96943 6.34642 4.90598 6.43763 4.78541L6.87367 4.20704L7.36482 4.57719L5.08016 7.51618L1.86728 5.09525H1.86726ZM3.83232 10.9668C3.85746 10.9647 3.88033 10.961 3.90263 10.9558C4.82723 10.8073 5.74306 11.4668 5.89884 12.4334C5.91151 12.5104 5.94161 12.5786 5.98497 12.6364L3.2218 13.8618L3.83232 10.9668ZM6.72022 11.9002C6.382 10.8319 5.41008 10.0858 4.30474 10.0204L9.05814 3.90567C9.57907 3.84723 10.0985 3.98303 10.5277 4.29297C10.9464 4.5954 11.2342 5.03094 11.3483 5.53003L10.6796 6.45048C10.6716 6.45958 6.72022 11.9002 6.72022 11.9002ZM12.2104 12.8893L8.93689 10.4225L11.125 7.41064L11.6056 7.77276L11.1135 8.42599C10.9599 8.62988 11.0006 8.91981 11.2047 9.07358C11.2809 9.13165 11.3774 9.16661 11.482 9.16661C11.4822 9.16661 11.4823 9.16661 11.4824 9.16661C11.6229 9.16661 11.7615 9.10314 11.8522 8.98237L12.3443 8.32931L12.9957 8.82012L12.5319 9.43554C12.3784 9.63966 12.419 9.92959 12.6231 10.0833C12.6993 10.1414 12.7958 10.1764 12.9005 10.1764C12.9006 10.1764 12.9008 10.1764 12.9009 10.1764C13.0413 10.1764 13.18 10.1129 13.2707 9.99234L13.7346 9.37685L14.4507 9.91648L12.2104 12.8893Z" />
</svg>
