<svg width="16" height="16" viewBox="-1 0 16 16" xmlns="http://www.w3.org/2000/svg">
<path fill-rule="evenodd" clip-rule="evenodd" d="M4.2 0L3.15 1L1 3.04762L0 4V15V16H1H13H14V15V1V0H13H4.2ZM1 15V4H4.2V1H13V15H1ZM8.74982 11.332C10.4895 11.332 11.8998 9.98889 11.8998 8.33203C11.8998 6.67518 10.4895 5.33203 8.74982 5.33203C7.25071 5.33203 5.99618 6.32937 5.67787 7.66536H2.1V8.9987H3.49982V10.3314H4.89982V8.9987H5.67787C5.99618 10.3347 7.25071 11.332 8.74982 11.332ZM10.4998 8.33203C10.4998 9.25251 9.71632 9.9987 8.74982 9.9987C7.78332 9.9987 6.99982 9.25251 6.99982 8.33203C6.99982 7.41156 7.78332 6.66536 8.74982 6.66536C9.71632 6.66536 10.4998 7.41156 10.4998 8.33203Z" />
</svg>
