<svg width="12" height="12" viewBox="0 0 12 12" xmlns="http://www.w3.org/2000/svg">
<g clip-path="url(#clip0)">
<path d="M0 0V5.14286H5.14286V0H0ZM3.42857 3.42857H1.71429V1.71429H3.42857V3.42857Z"/>
<path d="M0 6.85718V12H5.14286V6.85718H0ZM3.42857 10.2857H1.71429V8.57146H3.42857V10.2857Z"/>
<path d="M6.85693 0V5.14286H11.9998V0H6.85693ZM10.2855 3.42857H8.57122V1.71429H10.2855V3.42857Z"/>
<path d="M8.57122 10.2858H6.85693V12.0001H8.57122V10.2858Z"/>
<path d="M11.9999 10.2858H10.2856V12.0001H11.9999V10.2858Z"/>
<path d="M8.57122 6.85718H6.85693V8.57146H8.57122V6.85718Z"/>
<path d="M11.9999 6.85718H10.2856V8.57146H11.9999V6.85718Z"/>
<path d="M10.2856 8.57141H8.57129V10.2857H10.2856V8.57141Z"/>
</g>
<defs>
<clipPath id="clip0">
<rect width="12" height="12"/>
</clipPath>
</defs>
</svg>
