<svg width="10" height="16" viewBox="-3 0 16 16" fill="none" xmlns="http://www.w3.org/2000/svg">
<path d="M3.2 13.0909V16H6.25455V13.0909H3.2ZM4.65454 0C2.03636 0 0 1.74546 0 4.50909H2.90909C2.90909 3.49091 3.49091 2.61818 4.65454 2.61818C5.81818 2.61818 6.4 3.34546 6.4 4.50909C6.4 5.09091 6.10909 5.52727 5.81818 5.96364L4.21818 8C3.63636 8.72727 3.34545 9.30909 3.34545 10.3273V10.9091H6.25455V10.4727C6.25455 10.1818 6.4 9.6 6.69091 9.30909L8.29091 7.12727C8.87273 6.25455 9.45454 5.52727 9.45454 4.36364C9.30909 1.6 7.12727 0 4.65454 0Z"/>
</svg>
