<svg width="24" height="24" viewBox="0 0 24 24" fill="none" xmlns="http://www.w3.org/2000/svg">
<path d="M12 21C9.61305 21 7.32387 20.0518 5.63604 18.364C3.94821 16.6761 3 14.3869 3 12C3 9.61305 3.94821 7.32387 5.63604 5.63604C7.32387 3.94821 9.61305 3 12 3C14.3869 3 16.6761 3.94821 18.364 5.63604C20.0518 7.32387 21 9.61305 21 12C21 14.3869 20.0518 16.6761 18.364 18.364C16.6761 20.0518 14.3869 21 12 21ZM12 19.0714C13.8755 19.0714 15.6741 18.3264 17.0003 17.0003C18.3264 15.6741 19.0714 13.8755 19.0714 12C19.0714 10.1245 18.3264 8.3259 17.0003 6.99974C15.6741 5.67359 13.8755 4.92857 12 4.92857C10.1245 4.92857 8.3259 5.67359 6.99974 6.99974C5.67359 8.3259 4.92857 10.1245 4.92857 12C4.92857 13.8755 5.67359 15.6741 6.99974 17.0003C8.3259 18.3264 10.1245 19.0714 12 19.0714ZM8.11714 10.7143H15.8314C16.0019 10.7143 16.1654 10.782 16.286 10.9026C16.4066 11.0231 16.4743 11.1866 16.4743 11.3571V12.6429C16.4743 12.8134 16.4066 12.9769 16.286 13.0974C16.1654 13.218 16.0019 13.2857 15.8314 13.2857H8.11714C7.94665 13.2857 7.78313 13.218 7.66257 13.0974C7.54202 12.9769 7.47429 12.8134 7.47429 12.6429V11.3571C7.47429 11.1866 7.54202 11.0231 7.66257 10.9026C7.78313 10.782 7.94665 10.7143 8.11714 10.7143Z"/>
</svg>
