<svg width="24" height="24" viewBox="0 0 24 24" fill="none" xmlns="http://www.w3.org/2000/svg">
<path d="M3 10.9821C3 14.8274 6.1369 17.9643 9.98214 17.9643C11.5 17.9643 13.0179 17.4583 14.131 16.5476L18.5833 21L20 19.5833L15.5476 15.131C16.3571 14.0179 16.9643 12.5 16.9643 10.9821C16.9643 9.05952 16.1548 7.33929 14.9405 6.02381C13.7262 4.80952 11.9048 4 9.98214 4C6.1369 4 3 7.1369 3 10.9821ZM13.4226 7.44048C14.3333 8.35119 14.8393 9.56548 14.8393 10.881C14.8393 12.1964 14.3333 13.4107 13.4226 14.3214C12.5119 15.2321 11.2976 15.7381 9.98214 15.7381C8.66667 15.7381 7.45238 15.2321 6.54167 14.3214C5.52976 13.5119 5.02381 12.2976 5.02381 10.9821C5.02381 9.66667 5.52976 8.45238 6.44048 7.54167C7.35119 6.52976 8.66667 6.02381 9.98214 6.02381C11.2976 6.02381 12.5119 6.52976 13.4226 7.44048Z"/>
</svg>
