<svg width="18" height="18" viewBox="0 0 18 18" xmlns="http://www.w3.org/2000/svg">
<path d="M4.05 0C5.42363 0.000183169 6.75224 0.486987 7.79745 1.37307C8.84266 2.25915 9.53606 3.48651 9.75322 4.83493C10.2503 4.34133 10.8404 3.95 11.4897 3.68331C12.1391 3.41662 12.8349 3.27981 13.5375 3.2807H17.25V5.33114C17.25 6.03124 17.1113 6.72448 16.8418 7.37128C16.5723 8.01808 16.1773 8.60578 15.6794 9.10083C15.1814 9.59587 14.5902 9.98856 13.9396 10.2565C13.289 10.5244 12.5917 10.6623 11.8875 10.6623H9.825V18H8.175V8.20175H6.525C4.99337 8.20175 3.52448 7.59688 2.44146 6.52019C1.35844 5.4435 0.75 3.98319 0.75 2.46053V0H4.05ZM15.6 4.92105H13.5375C12.5529 4.92105 11.6086 5.3099 10.9124 6.00206C10.2161 6.69422 9.825 7.63298 9.825 8.61184V9.02193H11.8875C12.8721 9.02193 13.8164 8.63308 14.5126 7.94092C15.2089 7.24876 15.6 6.31 15.6 5.33114V4.92105ZM4.05 1.64035H2.4V2.46053C2.4 3.54815 2.8346 4.59122 3.60818 5.36028C4.38177 6.12935 5.43098 6.5614 6.525 6.5614H8.175V5.74123C8.175 5.20269 8.0683 4.66943 7.861 4.17189C7.6537 3.67435 7.34986 3.22227 6.96681 2.84147C6.58377 2.46067 6.12904 2.1586 5.62857 1.95251C5.1281 1.74642 4.5917 1.64035 4.05 1.64035Z"/>
</svg>
