<svg width="44" height="44" viewBox="0 0 44 44" fill="none" xmlns="http://www.w3.org/2000/svg">
<path d="M35.8001 18.4H23.5334V13.8H26.6001C28.2868 13.8 29.6668 12.42 29.6668 10.7333V6.13332C29.6668 4.44665 28.2868 3.06665 26.6001 3.06665H17.4001C15.7134 3.06665 14.3334 4.44665 14.3334 6.13332V10.7333C14.3334 12.42 15.7134 13.8 17.4001 13.8H20.4668V18.4H8.20011C6.51345 18.4 5.13345 19.78 5.13345 21.4667V26.0667C5.13345 26.9867 5.74678 27.6 6.66678 27.6C7.58678 27.6 8.20011 26.9867 8.20011 26.0667V21.4667H20.4668V26.0667C20.4668 26.9867 21.0801 27.6 22.0001 27.6C22.9201 27.6 23.5334 26.9867 23.5334 26.0667V21.4667H35.8001V26.0667C35.8001 26.9867 36.4134 27.6 37.3334 27.6C38.2534 27.6 38.8668 26.9867 38.8668 26.0667V21.4667C38.8668 19.78 37.4868 18.4 35.8001 18.4ZM17.4001 10.7333V6.13332H26.6001V10.7333H17.4001V10.7333ZM6.66678 41.4C3.29345 41.4 0.533447 38.64 0.533447 35.2667C0.533447 31.8933 3.29345 29.1333 6.66678 29.1333C10.0401 29.1333 12.8001 31.8933 12.8001 35.2667C12.8001 38.64 10.0401 41.4 6.66678 41.4ZM6.66678 32.2C4.98011 32.2 3.60011 33.58 3.60011 35.2667C3.60011 36.9533 4.98011 38.3333 6.66678 38.3333C8.35345 38.3333 9.73345 36.9533 9.73345 35.2667C9.73345 33.58 8.35345 32.2 6.66678 32.2V32.2ZM22.0001 41.4C18.6268 41.4 15.8668 38.64 15.8668 35.2667C15.8668 31.8933 18.6268 29.1333 22.0001 29.1333C25.3734 29.1333 28.1335 31.8933 28.1335 35.2667C28.1335 38.64 25.3734 41.4 22.0001 41.4ZM22.0001 32.2C20.3134 32.2 18.9334 33.58 18.9334 35.2667C18.9334 36.9533 20.3134 38.3333 22.0001 38.3333C23.6868 38.3333 25.0668 36.9533 25.0668 35.2667C25.0668 33.58 23.6868 32.2 22.0001 32.2ZM37.3334 41.4C33.9601 41.4 31.2001 38.64 31.2001 35.2667C31.2001 31.8933 33.9601 29.1333 37.3334 29.1333C40.7068 29.1333 43.4668 31.8933 43.4668 35.2667C43.4668 38.64 40.7068 41.4 37.3334 41.4ZM37.3334 32.2C35.6468 32.2 34.2668 33.58 34.2668 35.2667C34.2668 36.9533 35.6468 38.3333 37.3334 38.3333C39.0201 38.3333 40.4001 36.9533 40.4001 35.2667C40.4001 33.58 39.0201 32.2 37.3334 32.2Z" />
</svg>
