<svg width="10" height="10" viewBox="-0.25 -0.25 10.5 10.5" xmlns="http://www.w3.org/2000/svg">
  <path d="M9 5.11292C9 2.8659 7.2055 1.03762 5 1.03762C2.7945 1.03762 1 2.8659 1 5.11292C1 7.35994 2.7945 9.18822 5 9.18822C7.2055 9.18822 9 7.35994 9 5.11292ZM0 5.11292C0 2.29944 2.2385 0.0187988 5 0.0187988C7.7615 0.0187988 10 2.29944 10 5.11292C10 7.9264 7.7615 10.207 5 10.207C2.2385 10.207 0 7.9264 0 5.11292ZM1.88202 5.09769L4.08152 7.30395L7.69852 3.61836L6.99152 2.89805L4.06452 5.88066L2.58902 4.37738L1.88202 5.09769Z" />
</svg>
