<svg width="16" height="16" viewBox="0 0 16 16" fill="none" xmlns="http://www.w3.org/2000/svg">
<path fill-rule="evenodd" clip-rule="evenodd" d="M3.82079 7.00855H10.2994C10.5958 7.00855 10.8351 6.76927 10.8351 6.47284C10.8351 6.17641 10.5958 5.93712 10.2994 5.93712H3.82079C3.52436 5.93712 3.28507 6.17641 3.28507 6.47284C3.28507 6.76927 3.52436 7.00855 3.82079 7.00855ZM3.82079 9.72284H7.92079C8.21722 9.72284 8.4565 9.48355 8.4565 9.18712C8.4565 8.8907 8.21722 8.65141 7.92079 8.65141H3.82079C3.52436 8.65141 3.28507 8.8907 3.28507 9.18712C3.28507 9.48355 3.52436 9.72284 3.82079 9.72284ZM2.07433 3.44429L13.3922 3.44429L13.3993 3.44429C13.7636 3.44429 14.06 3.74072 14.06 4.10501V14.1336C14.06 14.5729 13.7029 14.93 13.2636 14.93H2.87076C2.43147 14.93 2.07433 14.5729 2.07433 14.1336V3.44429ZM13.3922 2.37286V1.86929C13.3922 0.83358 12.5494 -0.00927734 11.5136 -0.00927734H3.04936C1.92079 -0.00927734 1.00293 0.90858 1.00293 2.03715V3.44429H1.00647V14.1371C1.00647 15.1657 1.84576 16.0014 2.87433 16.0014H13.2672V16.0014C14.2958 16.0014 15.135 15.1622 15.135 14.13V4.10501C15.135 3.15144 14.36 2.37286 13.4029 2.37286H13.3922ZM12.3208 2.37287V1.86572C12.3208 1.41929 11.9601 1.05858 11.5136 1.05858H3.04936C2.51007 1.05858 2.07436 1.49787 2.07436 2.03358V2.37287H12.3208Z" fill="currentColor"/>
</svg>
