<svg width="12" height="14" viewBox="0 0 12 14" fill="none" xmlns="http://www.w3.org/2000/svg">
<path d="M4.67983 0.767722C4.67983 0.500467 4.50169 0.25943 4.22833 0.157031C3.95528 0.0546312 3.64061 0.111322 3.43134 0.300199L0.0831467 3.32675C-0.0277156 3.42695 -0.0277156 3.5892 0.0831467 3.6894L0.716276 4.26166C0.827139 4.36186 1.0068 4.36186 1.11751 4.26166L3.21736 2.36356L3.21736 13.7466C3.21736 13.8865 3.3428 14 3.4977 14H4.39964C4.55439 14 4.67998 13.8866 4.67998 13.7466L4.67983 0.767722ZM7.32002 0.25641L7.32002 13.2321C7.32002 13.4994 7.49816 13.7404 7.77152 13.8428C8.04457 13.9452 8.35924 13.8885 8.56851 13.6997L11.9169 10.6731C12.0277 10.5729 12.0277 10.4107 11.9169 10.3105L11.2837 9.73821C11.1729 9.638 10.9932 9.638 10.8825 9.73821L8.78249 11.6363V0.25641C8.78249 0.114753 8.65538 0 8.49881 0H7.60386C7.44713 0 7.32002 0.114753 7.32002 0.25641Z" />
</svg>
