<svg width="16" height="16" viewBox="0 0 16 16" fill="none" xmlns="http://www.w3.org/2000/svg">
<path fill-rule="evenodd" clip-rule="evenodd" d="M1.2 14.8L14.8 14.8L14.8 1.2L1.2 1.2L1.2 14.8ZM15.0857 16C15.5907 16 16 15.5907 16 15.0857L16 0.914285C16 0.40934 15.5907 0 15.0857 0L0.914285 0C0.40934 0 0 0.40934 0 0.914285L0 15.0857C0 15.5907 0.40934 16 0.914285 16L15.0857 16ZM5.48121 8.29645H6.07362C6.31908 8.29645 6.51807 8.16379 6.51807 8.00015C6.51807 7.83651 6.31908 7.70386 6.07362 7.70386H5.48118C5.53417 7.24846 5.70785 6.8299 5.9694 6.48099L6.20786 6.71945C6.34928 6.86088 6.57858 6.86088 6.72 6.71945C6.86143 6.57803 6.86143 6.34873 6.72 6.20731L6.48176 5.96907C6.83024 5.70831 7.24806 5.53513 7.70257 5.48219V6.07411C7.70257 6.31957 7.83523 6.51855 7.99887 6.51855C8.16251 6.51855 8.29517 6.31957 8.29517 6.07411V5.48215C8.75057 5.53513 9.16914 5.70881 9.51805 5.97036L9.28104 6.20737C9.13961 6.3488 9.13961 6.57809 9.28104 6.71951C9.42246 6.86094 9.65176 6.86094 9.79318 6.71951L10.03 6.48272C10.2908 6.83128 10.464 7.24922 10.5169 7.70386H9.92497C9.67951 7.70386 9.48052 7.83651 9.48052 8.00015C9.48052 8.16379 9.67951 8.29645 9.92497 8.29645H10.5169C10.4639 8.75116 10.2906 9.16914 10.0297 9.51772L9.79258 9.28061C9.65115 9.13919 9.42186 9.13919 9.28043 9.28061C9.13901 9.42204 9.13901 9.65133 9.28043 9.79276L9.51765 10.03C9.16882 10.2914 8.75039 10.4649 8.29517 10.5179V9.92594C8.29517 9.68048 8.16251 9.4815 7.99887 9.4815C7.83523 9.4815 7.70257 9.68048 7.70257 9.92594V10.5178C7.24787 10.4649 6.82989 10.2916 6.48132 10.0306L6.71963 9.79233C6.86106 9.65091 6.86106 9.42161 6.71963 9.28019C6.57821 9.13876 6.34891 9.13876 6.20749 9.28019L5.96907 9.51861C5.70776 9.16986 5.53421 8.75155 5.48121 8.29645ZM10.3272 5.71914C10.9032 6.30698 11.2583 7.11203 11.2583 8.00002V8.00015V8.0002C11.2583 8.89011 10.9016 9.6967 10.3233 10.2848C10.3174 10.2917 10.3112 10.2984 10.3047 10.3049C10.2982 10.3114 10.2916 10.3175 10.2848 10.3234C9.69651 10.9022 8.88948 11.2593 7.99904 11.2593H7.99791C6.19839 11.2587 4.73978 9.79968 4.73978 8.00002C4.73978 6.19998 6.199 4.74076 7.99904 4.74076C8.88787 4.74076 9.6936 5.09655 10.2816 5.67348C10.2897 5.68032 10.2977 5.68756 10.3053 5.69523C10.313 5.70295 10.3203 5.71093 10.3272 5.71914ZM8.00003 7.11089C7.50911 7.11089 7.11114 7.50886 7.11114 7.99978C7.11114 8.4907 7.50911 8.88867 8.00003 8.88867C8.49095 8.88867 8.88892 8.4907 8.88892 7.99978C8.88892 7.50886 8.49095 7.11089 8.00003 7.11089ZM12.4002 12.4001L3.60024 12.4001L3.58268 10.4001H3.70395C3.86759 10.4001 4.00024 10.2675 4.00024 10.1039V9.51126C4.00024 9.34762 3.86759 9.21496 3.70395 9.21496H3.57227L3.54754 6.40015H3.70395C3.86759 6.40015 4.00024 6.26749 4.00024 6.10385V5.51126C4.00024 5.34762 3.86759 5.21496 3.70395 5.21496H3.53713L3.52295 3.60015L12.4002 3.60015L12.4002 12.4001ZM13.6292 2.37038L13.6292 13.6296L2.36989 13.6296V10.4001H2.07425C1.91061 10.4001 1.77795 10.2675 1.77795 10.1039V9.51126C1.77795 9.34762 1.91061 9.21496 2.07425 9.21496H2.36989L2.36989 6.40015H2.07425C1.91061 6.40015 1.77795 6.26749 1.77795 6.10385V5.51126C1.77795 5.34762 1.91061 5.21496 2.07425 5.21496H2.36989V2.37038L13.6292 2.37038Z" fill="currentColor" />
</svg>
