<svg width="16" height="16" viewBox="0 0 16 16" fill="none" xmlns="http://www.w3.org/2000/svg">
<path fill-rule="evenodd" clip-rule="evenodd" d="M14.8 1.2H1.2V14.8H14.8V1.2ZM0.914286 0C0.40934 0 0 0.40934 0 0.914286V15.0857C0 15.5907 0.40934 16 0.914286 16H15.0857C15.5907 16 16 15.5907 16 15.0857V0.914286C16 0.40934 15.5907 0 15.0857 0H0.914286ZM10.5188 7.70355H9.92638C9.68092 7.70355 9.48193 7.83621 9.48193 7.99985C9.48193 8.16349 9.68092 8.29614 9.92638 8.29614H10.5188C10.4658 8.75154 10.2921 9.1701 10.0306 9.51901L9.79214 9.28055C9.65072 9.13912 9.42142 9.13912 9.28 9.28055C9.13857 9.42197 9.13857 9.65127 9.28 9.79269L9.51824 10.0309C9.16976 10.2917 8.75194 10.4649 8.29743 10.5178V9.92589C8.29743 9.68043 8.16477 9.48145 8.00113 9.48145C7.83749 9.48145 7.70483 9.68043 7.70483 9.92589V10.5178C7.24943 10.4649 6.83086 10.2912 6.48195 10.0296L6.71896 9.79263C6.86039 9.6512 6.86039 9.42191 6.71896 9.28049C6.57754 9.13906 6.34824 9.13906 6.20682 9.28049L5.97002 9.51728C5.7092 9.16872 5.536 8.75078 5.4831 8.29614H6.07503C6.32049 8.29614 6.51948 8.16349 6.51948 7.99985C6.51948 7.83621 6.32049 7.70355 6.07503 7.70355H5.48313C5.53609 7.24884 5.70938 6.83086 5.97032 6.48228L6.20742 6.71939C6.34885 6.86081 6.57814 6.86081 6.71957 6.71939C6.86099 6.57796 6.86099 6.34867 6.71957 6.20724L6.48235 5.97003C6.83118 5.70865 7.24961 5.53508 7.70483 5.48211V6.07406C7.70483 6.31952 7.83749 6.5185 8.00113 6.5185C8.16477 6.5185 8.29743 6.31952 8.29743 6.07406V5.48215C8.75213 5.53512 9.17011 5.70842 9.51868 5.96936L9.28037 6.20767C9.13894 6.34909 9.13894 6.57839 9.28037 6.71981C9.42179 6.86124 9.65109 6.86124 9.79251 6.71981L10.0309 6.48139C10.2922 6.83014 10.4658 7.24845 10.5188 7.70355ZM5.67279 10.2809C5.09682 9.69302 4.7417 8.88797 4.7417 7.99998V7.99985V7.9998C4.74175 7.10989 5.09845 6.3033 5.67666 5.71516C5.68257 5.7083 5.68877 5.70161 5.69528 5.6951C5.70175 5.68863 5.70841 5.68245 5.71523 5.67657C6.30349 5.0978 7.11052 4.74072 8.00096 4.74072H8.00209C9.80161 4.74133 11.2602 6.20032 11.2602 7.99998C11.2602 9.80002 9.801 11.2592 8.00096 11.2592C7.11213 11.2592 6.3064 10.9034 5.71841 10.3265C5.71026 10.3197 5.70234 10.3124 5.69468 10.3048C5.68696 10.2971 5.67966 10.2891 5.67279 10.2809ZM7.99997 8.88911C8.49089 8.88911 8.88886 8.49114 8.88886 8.00022C8.88886 7.5093 8.49089 7.11133 7.99997 7.11133C7.50905 7.11133 7.11108 7.5093 7.11108 8.00022C7.11108 8.49114 7.50905 8.88911 7.99997 8.88911ZM3.59976 3.59985H12.3998L12.4173 5.59985H12.2961C12.1324 5.59985 11.9998 5.73251 11.9998 5.89615V6.48874C11.9998 6.65238 12.1324 6.78504 12.2961 6.78504H12.4277L12.4525 9.59985H12.2961C12.1324 9.59985 11.9998 9.73251 11.9998 9.89615V10.4887C11.9998 10.6524 12.1324 10.785 12.2961 10.785H12.4629L12.4771 12.3999H3.59976V3.59985ZM2.37085 13.6296V2.37036H13.6301V5.59985H13.9258C14.0894 5.59985 14.222 5.73251 14.222 5.89615V6.48874C14.222 6.65238 14.0894 6.78504 13.9258 6.78504H13.6301V9.59985H13.9258C14.0894 9.59985 14.222 9.73251 14.222 9.89615V10.4887C14.222 10.6524 14.0894 10.785 13.9258 10.785H13.6301V13.6296H2.37085Z" fill="currentColor"/>
</svg>
