<svg width="17.5" height="14" viewBox="0 0 14 14" xmlns="http://www.w3.org/2000/svg">
<path d="M10.5564 7.91016V6.08995C10.5564 5.90793 10.6154 5.69833 10.697 5.61118L12.6356 3.56041C13.2701 2.88969 14 2.70105 14 3.42031V10.5809C14 11.2991 13.2701 11.1115 12.6356 10.4408L10.697 8.39003C10.6154 8.30398 10.5564 8.09328 10.5564 7.91016ZM9.63963 9.93004C9.63963 10.2226 9.52653 10.5032 9.32522 10.7101C9.12391 10.917 8.85087 11.0332 8.56617 11.0332H1.07346C0.788757 11.0332 0.51572 10.917 0.314408 10.7101C0.113096 10.5032 0 10.2226 0 9.93004V4.06896C0 3.77639 0.113096 3.4958 0.314408 3.28891C0.51572 3.08203 0.788757 2.96581 1.07346 2.96581H8.56617C8.85087 2.96581 9.12391 3.08203 9.32522 3.28891C9.52653 3.4958 9.63963 3.77639 9.63963 4.06896V9.93004Z"/>
</svg>
