<svg width="14" height="14" viewBox="0 -2 14 14" fill="none" xmlns="http://www.w3.org/2000/svg">
<path d="M10.5564 5.90979V4.08958C10.5564 3.90756 10.6154 3.69796 10.697 3.61081L12.6356 1.56004C13.2701 0.889324 14 0.700684 14 1.41994V8.58053C14 9.29869 13.2701 9.11115 12.6356 8.44043L10.697 6.38966C10.6154 6.30362 10.5564 6.09291 10.5564 5.90979ZM9.63963 7.92967C9.63963 8.22225 9.52653 8.50284 9.32522 8.70972C9.12391 8.9166 8.85087 9.03283 8.56617 9.03283H1.07346C0.788757 9.03283 0.51572 8.9166 0.314408 8.70972C0.113096 8.50284 0 8.22225 0 7.92967V2.0686C0 1.77602 0.113096 1.49543 0.314408 1.28855C0.51572 1.08167 0.788757 0.965442 1.07346 0.965442H8.56617C8.85087 0.965442 9.12391 1.08167 9.32522 1.28855C9.52653 1.49543 9.63963 1.77602 9.63963 2.0686V7.92967Z"/>
</svg>
