<svg width="18" height="18" viewBox="0 -6 18 18" fill="none" xmlns="http://www.w3.org/2000/svg">
<path d="M16.5831 5.9134L16.4152 5.04356H14.5392L14.2407 5.90722L12.737 5.91031C13.4528 4.12666 14.1702 2.34367 14.8891 0.56134C15.0115 0.25902 15.2287 0.105155 15.5488 0.106701C15.7936 0.109021 16.1928 0.109021 16.7473 0.107474L17.91 5.91108L16.5831 5.9134ZM14.9615 3.85206H16.1705L15.719 1.67165L14.9615 3.85206ZM5.26851 0.105928L6.78041 0.107474L4.44316 5.91418L2.91261 5.91263C2.52773 4.37885 2.14764 2.84379 1.77234 1.30747C1.69772 1.00129 1.54996 0.787113 1.26564 0.685825C0.845667 0.540019 0.423747 0.400314 0 0.266753L0 0.108247H2.41561C2.83351 0.108247 3.07753 0.317784 3.15588 0.74768C3.23499 1.17835 3.43349 2.27474 3.75288 4.03686L5.26851 0.105928ZM8.85797 0.107474L7.66248 5.91263L6.22371 5.91108L7.41771 0.105928L8.85797 0.107474ZM11.7758 0C12.2064 0 12.7489 0.139175 13.0608 0.266753L12.8086 1.47062C12.5265 1.35309 12.0624 1.19459 11.6721 1.2C11.1049 1.21005 10.7542 1.4567 10.7542 1.6933C10.7542 2.07835 11.3631 2.27242 11.99 2.69304C12.7056 3.17242 12.7997 3.60309 12.7907 4.07088C12.781 5.04201 11.99 6 10.3214 6C9.56019 5.9884 9.28557 5.92191 8.66469 5.69381L8.92737 4.43737C9.55944 4.71185 9.82734 4.79923 10.3676 4.79923C10.8624 4.79923 11.287 4.59201 11.2907 4.23093C11.2937 3.97423 11.1415 3.84665 10.5863 3.52964C10.0311 3.21186 9.25199 2.77191 9.26243 1.88892C9.27512 0.758505 10.3087 0 11.7765 0H11.7758Z" fill="#1773EB"/>
</svg>
