<svg width="58" height="58" viewBox="0 -11 58 58" fill="none" xmlns="http://www.w3.org/2000/svg">
<path d="M11.8738 7.03377C21.3324 -2.34459 36.6677 -2.34459 46.1263 7.03377L47.2646 8.16247C47.7375 8.63139 47.7375 9.39166 47.2646 9.86057L43.3705 13.7216C43.1341 13.9561 42.7507 13.9561 42.5142 13.7216L40.9477 12.1684C34.3492 5.62583 23.6509 5.62583 17.0523 12.1684L15.3747 13.8318C15.1383 14.0662 14.7549 14.0662 14.5184 13.8318L10.6244 9.97073C10.1514 9.50181 10.1514 8.74154 10.6244 8.27262L11.8738 7.03377ZM54.1796 15.0189L57.6453 18.4552C58.1182 18.9241 58.1182 19.6844 57.6453 20.1533L42.0181 35.6483C41.5452 36.1172 40.7784 36.1172 40.3055 35.6483C40.3054 35.6483 40.3054 35.6483 40.3054 35.6483L29.2142 24.6511C29.0959 24.5338 28.9043 24.5338 28.786 24.6511C28.786 24.6511 28.786 24.6511 28.786 24.6511L17.695 35.6483C17.2221 36.1172 16.4553 36.1172 15.9824 35.6483C15.9824 35.6483 15.9824 35.6483 15.9824 35.6483L0.354696 20.1531C-0.118232 19.6842 -0.118232 18.9239 0.354696 18.455L3.82044 15.0187C4.29336 14.5497 5.06013 14.5497 5.53306 15.0187L16.6245 26.0161C16.7427 26.1333 16.9344 26.1333 17.0526 26.0161C17.0526 26.0161 17.0526 26.0161 17.0526 26.016L28.1435 15.0187C28.6164 14.5497 29.3832 14.5497 29.8561 15.0186C29.8561 15.0186 29.8561 15.0186 29.8562 15.0186L40.9476 26.016C41.0658 26.1333 41.2575 26.1333 41.3757 26.016L52.4669 15.0189C52.9399 14.5499 53.7066 14.5499 54.1796 15.0189Z" fill="#3B99FC"/>
</svg>
