<svg width="64" height="64" viewBox="0 0 64 64" fill="none" xmlns="http://www.w3.org/2000/svg">
<path fill-rule="evenodd" clip-rule="evenodd" d="M34.6143 11.7773H37.2534V9.13809H34.6143V11.7773ZM34.6143 5.83912H37.2534V3.19995H34.6143V5.83912ZM43.4291 27.6782C44.1153 26.451 44.498 25.039 44.498 23.5347C44.498 18.7974 40.658 14.9574 35.9207 14.9574C31.7904 14.9574 28.333 17.8869 27.5281 21.7796C27.4093 22.3471 27.3434 22.9277 27.3434 23.5347C27.3434 24.2077 27.4225 24.8543 27.5677 25.4745C27.7392 26.253 28.0295 26.992 28.4254 27.6782H43.4291ZM53.4845 23.6667H50.8453V21.0275H53.4845V23.6667ZM53.4845 17.7286H50.8453V15.0894H53.4845V17.7286ZM28.531 15.1159V8.79507H25.8918V16.4751H27.2246C27.6205 15.9868 28.0559 15.525 28.531 15.1159ZM47.0185 7.25112H44.3793V16.1187H47.0185V7.25112ZM13.4877 11.7904H16.1269V24.0625H13.4877V11.7904ZM23.1341 26.042H20.4949V23.4028H23.1341V26.042ZM23.1341 20.1038H20.4949V17.4647H23.1341V20.1038ZM23.1341 14.1657H20.4949V11.5265H23.1341V14.1657ZM15.2825 58.0289H41.8458V55.812H44.6169V60.8H9.08041C6.17732 60.8 4 58.6095 4 55.7196V27.652C4 24.7489 6.5468 22.2021 9.44989 22.2021H10.8487V24.9732H9.44989C8.10391 24.9732 6.77113 26.306 6.77113 27.652C6.77113 28.998 8.10391 30.3308 9.44989 30.3308H44.4321V35.3188H41.661V33.2866H9.44989C8.7901 33.2866 8.11711 33.1151 7.44412 32.7852L6.77113 32.4421V55.7196C6.77113 56.9072 7.89278 58.0289 9.08041 58.0289H12.6433V52.0248L14.9262 49.7419C14.7018 49.2009 14.5699 48.607 14.5699 47.9868C14.5699 45.4532 16.6416 43.3683 19.1884 43.3683C21.7352 43.3683 23.807 45.4532 23.807 47.9868C23.807 50.5336 21.7352 52.6054 19.1884 52.6054C18.2251 52.6054 17.3278 52.3019 16.5889 51.8004L15.2825 53.1068V58.0289ZM21.1678 47.9868C21.1678 46.9048 20.2837 46.0075 19.1884 46.0075C18.0932 46.0075 17.2091 46.9048 17.2091 47.9868C17.2091 49.0821 18.0932 49.9662 19.1884 49.9662C20.2837 49.9662 21.1678 49.0821 21.1678 47.9868ZM34.4691 38.8289V52.6713H48.3116V38.8289H34.4691ZM45.5405 49.9002H37.2271V41.5868H45.5405V49.9002ZM52.1517 40.9137C56.1632 40.9137 59.4094 37.6543 59.4094 33.6559C59.4094 29.6444 56.1632 26.3982 52.1517 26.3982C50.1855 26.3982 48.3909 27.1899 47.0713 28.4699V36.1895H50.9509V40.8081C51.3336 40.8741 51.7426 40.9137 52.1517 40.9137Z" />
</svg>
