<svg width="16" height="16" viewBox="0 0 16 16" fill="none" xmlns="http://www.w3.org/2000/svg">
<path d="M13.536 1.33594H2.46401C1.40001 1.33594 0.536011 2.19994 0.536011 3.26394V12.7679C0.536011 13.8319 1.40001 14.6959 2.46401 14.6959H13.536C14.6 14.6959 15.464 13.8319 15.464 12.7679V3.26394C15.464 2.19994 14.6 1.33594 13.536 1.33594ZM14.4 9.57594H10.096C9.23201 9.57594 8.52801 8.87194 8.52801 8.00794C8.52801 7.14394 9.23201 6.43994 10.096 6.43994H14.4V9.57594ZM14.4 12.7679C14.4 13.2399 14.016 13.6319 13.536 13.6319H2.46401C1.99201 13.6319 1.60001 13.2479 1.60001 12.7679V3.26394C1.60001 2.78394 1.98401 2.39994 2.46401 2.39994H13.536C14.008 2.39994 14.4 2.78394 14.4 3.26394V5.38394H10.096C8.64801 5.38394 7.46401 6.56794 7.46401 8.01594C7.46401 9.46394 8.64801 10.6479 10.096 10.6479H14.4V12.7679ZM10.472 8.01594C10.472 7.63194 10.784 7.31994 11.168 7.31994C11.552 7.31994 11.864 7.63194 11.864 8.01594C11.864 8.39994 11.552 8.71194 11.168 8.71194C10.784 8.70394 10.472 8.39994 10.472 8.01594Z" />
</svg>
