<svg width="16" height="16" viewBox="0 0 16 16" xmlns="http://www.w3.org/2000/svg">
<path fill-rule="evenodd" clip-rule="evenodd" d="M11 5H9.5V3H11C13.7614 3 16 5.23858 16 8C16 10.7614 13.7614 13 11 13H9.5V11H11C12.6569 11 14 9.65685 14 8C14 6.34315 12.6569 5 11 5ZM6.5 3V5H5C3.34315 5 2 6.34315 2 8C2 9.65685 3.34315 11 5 11H6.5V13H5C2.23858 13 0 10.7614 0 8C0 5.23858 2.23858 3 5 3H6.5ZM5 7C4.44772 7 4 7.44772 4 8C4 8.55228 4.44772 9 5 9H11C11.5523 9 12 8.55228 12 8C12 7.44772 11.5523 7 11 7H5Z"/>
</svg>
