<svg width="40" height="40" viewBox="0 0 40 40" fill="none" xmlns="http://www.w3.org/2000/svg">
<path d="M28.2583 17.2344V29.1827H40V17.2344H28.2583ZM34.1292 25.2051L32.1671 23.2085L34.1292 21.212L36.1065 23.2085L34.1292 25.2051Z"/>
<path d="M9.52687 7.43164H8.06299V8.92128H9.52687V7.43164Z"/>
<path d="M6.36916 7.43164H4.90527V8.92128H6.36916V7.43164Z"/>
<path d="M12.6922 7.43164H11.2283V8.92128H12.6922V7.43164Z"/>
<path d="M15.8499 7.43164H14.386V8.92128H15.8499V7.43164Z"/>
<path d="M30.1855 8.92383L31.6494 8.92383L31.6494 7.43419L30.1855 7.43419L30.1855 8.92383Z"/>
<path d="M33.3401 8.92383L34.804 8.92383L34.804 7.43419L33.3401 7.43419L33.3401 8.92383Z"/>
<path d="M36.5019 8.92383L37.9658 8.92383L37.9658 7.43419L36.5019 7.43419L36.5019 8.92383Z"/>
<path d="M27.0237 8.92383L28.4875 8.92383L28.4875 7.43419L27.0237 7.43419L27.0237 8.92383Z"/>
<path d="M23.8616 8.92383L25.3254 8.92383L25.3254 7.43419L23.8616 7.43419L23.8616 8.92383Z"/>
<path d="M20.6994 8.92383L22.1633 8.92383L22.1633 7.43419L20.6994 7.43419L20.6994 8.92383Z"/>
<path d="M19.0076 7.43164H17.5437V8.92128H19.0076V7.43164Z"/>
<path d="M1.91608 8.18036C1.91608 9.41263 2.89711 10.4031 4.10807 10.4031H37.9613V15.2776H36.0452V12.3529H4.10807C3.29565 12.3529 2.54455 12.1189 1.91608 11.7056V31.8274C1.91608 33.0597 2.89711 34.0502 4.10807 34.0502H36.0452V31.1255H37.9613V36H4.10807C1.83943 36 0 34.1282 0 31.8274V8.18036C0 5.8718 1.83943 4 4.10807 4H37.9613V5.94979H4.10807C2.88944 5.94979 1.91608 6.94029 1.91608 8.18036Z"/>
</svg>
