<svg width="64" height="64" viewBox="0 0 64 64" fill="none" xmlns="http://www.w3.org/2000/svg">
<path d="M62.7039 50.1129L37.559 8.13314C34.4965 2.62229 29.4997 2.62229 26.4372 8.13314L1.29232 50.1129C-1.7702 55.6237 0.80876 60 6.9338 60H57.2236C63.1874 60 65.7664 55.4616 62.7039 50.1129ZM29.6609 20.7757C29.6609 19.479 30.7892 18.3444 32.0787 18.3444C33.3682 18.3444 34.4965 19.479 34.4965 20.7757V37.7945C34.4965 39.0912 33.3682 40.2258 32.0787 40.2258C30.7892 40.2258 29.6609 39.0912 29.6609 37.7945V20.7757ZM31.9175 50.5991C29.9833 50.5991 28.5326 48.9783 28.5326 47.1954C28.5326 45.4124 30.1445 43.7916 31.9175 43.7916C33.6905 43.7916 35.3024 45.4124 35.3024 47.1954C35.3024 48.9783 33.8517 50.5991 31.9175 50.5991Z" />
</svg>
