<svg width="40" height="40" viewBox="0 0 40 40" fill="none" xmlns="http://www.w3.org/2000/svg">
<path d="M32.06 1.99997H15.662V24.122H37.802V7.72397C37.802 6.97076 37.6533 6.22497 37.3646 5.52932C37.0758 4.83368 36.6525 4.20187 36.1191 3.67011C35.5857 3.13835 34.9525 2.7171 34.256 2.4305C33.5594 2.14391 32.8132 1.9976 32.06 1.99997Z" fill="#142533"/>
<path d="M10.55 2H7.724C6.2059 2 4.74998 2.60306 3.67652 3.67652C2.60306 4.74998 2 6.2059 2 7.724L2 10.55H10.55V2Z" fill="#142533"/>
<path d="M2 15.6619H10.55V24.2119H2V15.6619Z" fill="#142533"/>
<path d="M29.324 37.8021H32.15C32.9032 37.8021 33.649 37.6534 34.3446 37.3647C35.0403 37.0759 35.6721 36.6526 36.2038 36.1192C36.7356 35.5858 37.1568 34.9526 37.4434 34.2561C37.73 33.5596 37.8763 32.8133 37.874 32.0601V29.3241H29.324V37.8021Z" fill="#142533"/>
<path d="M15.662 29.3241H24.212V37.8741H15.662V29.3241Z" fill="#142533"/>
<path d="M2 29.3241V32.1501C2 33.6682 2.60306 35.1241 3.67652 36.1976C4.74998 37.271 6.2059 37.8741 7.724 37.8741H10.55V29.3241H2Z" fill="#142533"/>
</svg>
