<svg width="40" height="40" viewBox="0 0 40 40" fill="none" xmlns="http://www.w3.org/2000/svg">
<path d="M29.2824 18.4203C28.5233 17.6613 28.5233 16.4307 29.2824 15.6717C30.0414 14.9127 31.272 14.9127 32.031 15.6717C32.79 16.4307 32.79 17.6613 32.031 18.4203C31.272 19.1793 30.0414 19.1793 29.2824 18.4203ZM22.7544 24.9483C22.1851 24.3791 22.1851 23.4561 22.7544 22.8868C23.3236 22.3176 24.2466 22.3176 24.8158 22.8868C25.3851 23.4561 25.3851 24.3791 24.8158 24.9483C24.2466 25.5176 23.3236 25.5176 22.7544 24.9483ZM33.0617 21.5125C32.4925 20.9433 32.4925 20.0203 33.0617 19.4511C33.631 18.8818 34.5539 18.8818 35.1232 19.4511C35.6924 20.0203 35.6924 20.9433 35.1232 21.5125C34.5539 22.0818 33.631 22.0818 33.0617 21.5125ZM29.6259 24.9483C29.0567 24.3791 29.0567 23.4561 29.6259 22.8868C30.1952 22.3176 31.1181 22.3176 31.6874 22.8868C32.2567 23.4561 32.2567 24.3791 31.6874 24.9483C31.1181 25.5176 30.1952 25.5176 29.6259 24.9483ZM36.8411 24.6047C36.4616 24.2252 36.4616 23.6099 36.8411 23.2304C37.2206 22.8509 37.8359 22.8509 38.2154 23.2304C38.5949 23.6099 38.5949 24.2252 38.2154 24.6047C37.8359 24.9842 37.2206 24.9842 36.8411 24.6047ZM33.4053 28.0405C33.0258 27.661 33.0258 27.0457 33.4053 26.6662C33.7848 26.2867 34.4001 26.2867 34.7796 26.6662C35.1591 27.0457 35.1591 27.661 34.7796 28.0405C34.4001 28.42 33.7848 28.42 33.4053 28.0405ZM25.8466 21.8561C25.0876 21.0971 25.0876 19.8665 25.8466 19.1075C26.6056 18.3485 27.8362 18.3485 28.5952 19.1075C29.3542 19.8665 29.3542 21.0971 28.5952 21.8561C27.8362 22.6151 26.6056 22.6151 25.8466 21.8561ZM25.8466 14.9845C25.0876 14.2255 25.0876 12.9949 25.8466 12.2359C26.6056 11.4769 27.8362 11.4769 28.5952 12.2359C29.3542 12.9949 29.3542 14.2255 28.5952 14.9845C27.8362 15.7436 26.6056 15.7436 25.8466 14.9845ZM22.4108 18.4203C21.6518 17.6613 21.6518 16.4307 22.4108 15.6717C23.1698 14.9127 24.4004 14.9127 25.1594 15.6717C25.9184 16.4307 25.9184 17.6613 25.1594 18.4203C24.4004 19.1793 23.1698 19.1793 22.4108 18.4203ZM15.5073 18.4203C14.7483 17.6613 14.7483 16.4307 15.5073 15.6717C16.2663 14.9127 17.4969 14.9127 18.2559 15.6717C19.0149 16.4307 19.0149 17.6613 18.2559 18.4203C17.4969 19.1793 16.2663 19.1793 15.5073 18.4203ZM8.9793 24.9483C8.41005 24.3791 8.41005 23.4561 8.9793 22.8868C9.54856 22.3176 10.4715 22.3176 11.0408 22.8868C11.61 23.4561 11.61 24.3791 11.0408 24.9483C10.4715 25.5176 9.54856 25.5176 8.9793 24.9483ZM19.2867 21.5125C18.7174 20.9433 18.7174 20.0203 19.2867 19.4511C19.8559 18.8818 20.7789 18.8818 21.3481 19.4511C21.9174 20.0203 21.9174 20.9433 21.3481 21.5125C20.7789 22.0818 19.8559 22.0818 19.2867 21.5125ZM15.8509 24.9483C15.2816 24.3791 15.2816 23.4561 15.8509 22.8868C16.4201 22.3176 17.3431 22.3176 17.9123 22.8868C18.4816 23.4561 18.4816 24.3791 17.9123 24.9483C17.3431 25.5176 16.4201 25.5176 15.8509 24.9483ZM2.45132 24.6047C2.07181 24.2252 2.07181 23.6099 2.45132 23.2304C2.83082 22.8509 3.44612 22.8509 3.82563 23.2304C4.20513 23.6099 4.20513 24.2252 3.82563 24.6047C3.44612 24.9842 2.83082 24.9842 2.45132 24.6047ZM5.8871 28.0405C5.50759 27.661 5.50759 27.0457 5.8871 26.6662C6.26661 26.2867 6.8819 26.2867 7.26141 26.6662C7.64092 27.0457 7.64092 27.661 7.26141 28.0405C6.8819 28.42 6.26661 28.42 5.8871 28.0405ZM19.6302 28.0405C19.2507 27.661 19.2507 27.0457 19.6302 26.6662C20.0097 26.2867 20.625 26.2867 21.0045 26.6662C21.384 27.0457 21.384 27.661 21.0045 28.0405C20.625 28.42 20.0097 28.42 19.6302 28.0405ZM5.54352 21.5125C4.97426 20.9433 4.97426 20.0203 5.54352 19.4511C6.11278 18.8818 7.03573 18.8818 7.60499 19.4511C8.17425 20.0203 8.17425 20.9433 7.60499 21.5125C7.03573 22.0818 6.11278 22.0818 5.54352 21.5125ZM12.0715 21.8561C11.3125 21.0971 11.3125 19.8665 12.0715 19.1075C12.8305 18.3485 14.0611 18.3485 14.8201 19.1075C15.5791 19.8665 15.5791 21.0971 14.8201 21.8561C14.0611 22.6151 12.8305 22.6151 12.0715 21.8561ZM12.0715 14.9845C11.3125 14.2255 11.3125 12.9949 12.0715 12.2359C12.8305 11.4769 14.0611 11.4769 14.8201 12.2359C15.5791 12.9949 15.5791 14.2255 14.8201 14.9845C14.0611 15.7436 12.8305 15.7436 12.0715 14.9845ZM8.63572 18.4203C7.87671 17.6613 7.87671 16.4307 8.63572 15.6717C9.39474 14.9127 10.6253 14.9127 11.3844 15.6717C12.1434 16.4307 12.1434 17.6613 11.3844 18.4203C10.6253 19.1793 9.39474 19.1793 8.63572 18.4203Z" fill="black"/>
</svg>
