<svg width="36" height="35" viewBox="0 0 36 35" fill="none" xmlns="http://www.w3.org/2000/svg">
<path d="M32.5428 2.91687L19.7736 12.3652L22.1481 6.797L32.5428 2.91687Z" fill="#E17726" stroke="#E17726" stroke-width="0.25" stroke-linecap="round" stroke-linejoin="round"/>
<path d="M3.08882 2.91687L15.7444 12.4534L13.4836 6.79699L3.08882 2.91687Z" fill="#E27625" stroke="#E27625" stroke-width="0.25" stroke-linecap="round" stroke-linejoin="round"/>
<path d="M27.9451 24.8243L24.5475 30.0146L31.8226 32.0177L33.9066 24.9377L27.9451 24.8243Z" fill="#E27625" stroke="#E27625" stroke-width="0.25" stroke-linecap="round" stroke-linejoin="round"/>
<path d="M1.73737 24.9377L3.80872 32.0177L11.0712 30.0146L7.68623 24.8243L1.73737 24.9377Z" fill="#E27625" stroke="#E27625" stroke-width="0.25" stroke-linecap="round" stroke-linejoin="round"/>
<path d="M10.6796 16.0559L8.65875 19.1046L15.858 19.4321L15.6181 11.6845L10.6796 16.0559Z" fill="#E27625" stroke="#E27625" stroke-width="0.25" stroke-linecap="round" stroke-linejoin="round"/>
<path d="M24.9517 16.0565L19.9376 11.5969L19.7734 19.4327L26.9726 19.1052L24.9517 16.0565Z" fill="#E27625" stroke="#E27625" stroke-width="0.25" stroke-linecap="round" stroke-linejoin="round"/>
<path d="M11.0712 30.0145L15.4286 27.9107L11.6775 24.988L11.0712 30.0145Z" fill="#E27625" stroke="#E27625" stroke-width="0.25" stroke-linecap="round" stroke-linejoin="round"/>
<path d="M20.2029 27.9107L24.5477 30.0145L23.9541 24.988L20.2029 27.9107Z" fill="#E27625" stroke="#E27625" stroke-width="0.25" stroke-linecap="round" stroke-linejoin="round"/>
<path d="M24.5477 30.0145L20.2029 27.9107L20.5565 30.7326L20.5186 31.9294L24.5477 30.0145Z" fill="#D5BFB2" stroke="#D5BFB2" stroke-width="0.25" stroke-linecap="round" stroke-linejoin="round"/>
<path d="M11.0712 30.0145L15.1129 31.9294L15.0876 30.7326L15.4286 27.9107L11.0712 30.0145Z" fill="#D5BFB2" stroke="#D5BFB2" stroke-width="0.25" stroke-linecap="round" stroke-linejoin="round"/>
<path d="M15.1886 23.1233L11.5764 22.0651L14.1277 20.8935L15.1886 23.1233Z" fill="#233447" stroke="#233447" stroke-width="0.25" stroke-linecap="round" stroke-linejoin="round"/>
<path d="M20.4428 23.1233L21.5038 20.8935L24.0678 22.0651L20.4428 23.1233Z" fill="#233447" stroke="#233447" stroke-width="0.25" stroke-linecap="round" stroke-linejoin="round"/>
<path d="M11.0712 30.0146L11.7027 24.8243L7.68628 24.9377L11.0712 30.0146Z" fill="#CC6228" stroke="#CC6228" stroke-width="0.25" stroke-linecap="round" stroke-linejoin="round"/>
<path d="M23.9288 24.8243L24.5477 30.0146L27.9452 24.9377L23.9288 24.8243Z" fill="#CC6228" stroke="#CC6228" stroke-width="0.25" stroke-linecap="round" stroke-linejoin="round"/>
<path d="M26.9726 19.1047L19.7734 19.4323L20.4427 23.1235L21.5037 20.8936L24.0677 22.0652L26.9726 19.1047Z" fill="#CC6228" stroke="#CC6228" stroke-width="0.25" stroke-linecap="round" stroke-linejoin="round"/>
<path d="M11.5763 22.0652L14.1276 20.8936L15.1886 23.1235L15.858 19.4323L8.65875 19.1047L11.5763 22.0652Z" fill="#CC6228" stroke="#CC6228" stroke-width="0.25" stroke-linecap="round" stroke-linejoin="round"/>
<path d="M8.65898 19.1047L11.6776 24.9879L11.5765 22.0652L8.65898 19.1047Z" fill="#E27525" stroke="#E27525" stroke-width="0.25" stroke-linecap="round" stroke-linejoin="round"/>
<path d="M24.0678 22.0652L23.9542 24.9879L26.9728 19.1047L24.0678 22.0652Z" fill="#E27525" stroke="#E27525" stroke-width="0.25" stroke-linecap="round" stroke-linejoin="round"/>
<path d="M15.8585 19.4324L15.189 23.1237L16.0352 27.4824L16.2247 21.7379L15.8585 19.4324Z" fill="#E27525" stroke="#E27525" stroke-width="0.25" stroke-linecap="round" stroke-linejoin="round"/>
<path d="M19.7736 19.4324L19.4199 21.7253L19.5967 27.4824L20.443 23.1237L19.7736 19.4324Z" fill="#E27525" stroke="#E27525" stroke-width="0.25" stroke-linecap="round" stroke-linejoin="round"/>
<path d="M20.443 23.1235L19.5968 27.4823L20.203 27.9106L23.9543 24.9879L24.0679 22.0652L20.443 23.1235Z" fill="#F5841F" stroke="#F5841F" stroke-width="0.25" stroke-linecap="round" stroke-linejoin="round"/>
<path d="M11.5764 22.0652L11.6775 24.9879L15.4286 27.9106L16.0349 27.4823L15.1886 23.1235L11.5764 22.0652Z" fill="#F5841F" stroke="#F5841F" stroke-width="0.25" stroke-linecap="round" stroke-linejoin="round"/>
<path d="M20.5187 31.9292L20.5565 30.7324L20.2282 30.4552H15.4034L15.0876 30.7324L15.1129 31.9292L11.0712 30.0143L12.4858 31.1733L15.3529 33.1512H20.266L23.1457 31.1733L24.5477 30.0143L20.5187 31.9292Z" fill="#C0AC9D" stroke="#C0AC9D" stroke-width="0.25" stroke-linecap="round" stroke-linejoin="round"/>
<path d="M20.2029 27.9108L19.5966 27.4825H16.0348L15.4287 27.9108L15.0876 30.7328L15.4034 30.4556H20.2281L20.5565 30.7328L20.2029 27.9108Z" fill="#161616" stroke="#161616" stroke-width="0.25" stroke-linecap="round" stroke-linejoin="round"/>
<path d="M33.0858 12.9825L34.1594 7.76702L32.5427 2.91687L20.2029 12.0503L24.9519 16.0564L31.6585 18.0091L33.1363 16.2832L32.4922 15.817L33.5152 14.8848L32.7322 14.2801L33.7552 13.499L33.0858 12.9825Z" fill="#763E1A" stroke="#763E1A" stroke-width="0.25" stroke-linecap="round" stroke-linejoin="round"/>
<path d="M1.47227 7.76702L2.55848 12.9825L1.86382 13.499L2.8995 14.2801L2.11642 14.8848L3.13947 15.817L2.49532 16.2832L3.97307 18.0091L10.6798 16.0564L15.4287 12.0503L3.08895 2.91687L1.47227 7.76702Z" fill="#763E1A" stroke="#763E1A" stroke-width="0.25" stroke-linecap="round" stroke-linejoin="round"/>
<path d="M31.6586 18.0089L24.952 16.0563L26.9728 19.105L23.9542 24.9881L27.9453 24.9377H33.9068L31.6586 18.0089Z" fill="#F5841F" stroke="#F5841F" stroke-width="0.25" stroke-linecap="round" stroke-linejoin="round"/>
<path d="M10.6796 16.0563L3.97292 18.0089L1.73737 24.9377H7.68623L11.6774 24.9881L8.65876 19.105L10.6796 16.0563Z" fill="#F5841F" stroke="#F5841F" stroke-width="0.25" stroke-linecap="round" stroke-linejoin="round"/>
<path d="M19.7734 19.4325L20.2028 12.0501L22.1479 6.79688H13.4835L15.4285 12.0501L15.858 19.4325L16.0222 21.7505L16.0348 27.4825H19.5966L19.6092 21.7505L19.7734 19.4325Z" fill="#F5841F" stroke="#F5841F" stroke-width="0.25" stroke-linecap="round" stroke-linejoin="round"/>
</svg>
