<svg width="164" height="131" viewBox="0 0 164 131" fill="none" xmlns="http://www.w3.org/2000/svg">
<path d="M111.047 65.3675L122.594 85.3675L111.047 105.368H87.953L76.406 85.3675L87.953 65.3675H111.047Z" fill="#F8D12F" stroke="#F0B90B" stroke-width="10"/>
<path d="M146.047 5.36752L157.594 25.3675L146.047 45.3675H122.953L111.406 25.3675L122.953 5.36752L146.047 5.36752Z" fill="#F8D12F" stroke="#F0B90B" stroke-width="10"/>
<path d="M146.047 45.3675L157.594 65.3675L146.047 85.3675H122.953L111.406 65.3675L122.953 45.3675H146.047Z" fill="#F8D12F" stroke="#F0B90B" stroke-width="10"/>
<path d="M76.047 85.3675L87.594 105.368L76.047 125.368H52.953L41.406 105.368L52.953 85.3675H76.047Z" fill="#F8D12F" stroke="#F0B90B" stroke-width="10"/>
<path d="M41.047 25.3675L52.594 45.3675L41.047 65.3675H17.953L6.40599 45.3675L17.953 25.3675L41.047 25.3675Z" fill="#F8D12F" stroke="#F0B90B" stroke-width="10"/>
<path d="M41.047 65.3675L52.594 85.3675L41.047 105.368H17.953L6.40599 85.3675L17.953 65.3675H41.047Z" fill="#F8D12F" stroke="#F0B90B" stroke-width="10"/>
<path d="M111.047 25.3675L122.594 45.3675L111.047 65.3675H87.953L76.406 45.3675L87.953 25.3675L111.047 25.3675Z" fill="#F8D12F" stroke="#F0B90B" stroke-width="10"/>
<path d="M76.047 5.36752L87.594 25.3675L76.047 45.3675H52.953L41.406 25.3675L52.953 5.36752L76.047 5.36752Z" fill="#F8D12F" stroke="#F0B90B" stroke-width="10"/>
<path d="M76.047 45.3675L87.594 65.3675L76.047 85.3675H52.953L41.406 65.3675L52.953 45.3675H76.047Z" fill="#F8D12F" stroke="#F0B90B" stroke-width="10"/>
</svg>
