<svg width="185" height="25" viewBox="0 0 185 25" xmlns="http://www.w3.org/2000/svg">
<path fill-rule="evenodd" clip-rule="evenodd" d="M38.9806 15.7844V15.831C38.9806 18.2077 37.0216 19.4193 34.0832 19.396H27.8566V6.32418H33.9433C36.6018 6.32418 38.2576 7.65233 38.2576 9.70282V9.74942C38.2576 11.2174 37.4647 12.0562 36.5319 12.5688C38.0477 13.1514 38.9806 14.0368 38.9806 15.7844ZM33.3136 11.6135C34.5963 11.6135 35.3891 11.2174 35.3891 10.2387V10.1921C35.3891 9.33 34.7129 8.84068 33.5002 8.84068H30.6551V11.6135H33.3136ZM34.0832 16.9028C35.3425 16.9028 36.1121 16.4601 36.1121 15.4815V15.4349C36.1121 14.5494 35.4591 14.0135 33.9899 14.0135H30.6551V16.9028H34.0832ZM45.0206 6.34748V19.4193H42.1288V6.34748H45.0206ZM60.5055 6.34748V19.4193H58.0569L51.7136 11.1009V19.4193H48.8685V6.34748H51.5271L57.6604 14.4096V6.34748H60.5055ZM70.8365 6.25427L76.4568 19.4193H73.4018L72.2125 16.4834H66.6855L65.4961 19.4193H62.5577L68.178 6.25427H70.8365ZM67.7349 13.9436H71.2097L69.484 9.70282L67.7349 13.9436ZM90.1694 6.34748V19.4193H87.7207L81.3775 11.1009V19.4193H78.5324V6.34748H81.1909L87.3243 14.4096V6.34748H90.1694ZM103.206 15.4582L105.048 17.2989C103.695 18.7436 102.203 19.629 99.6842 19.629C95.8363 19.629 92.9679 16.6465 92.9679 12.895V12.8484C92.9679 9.14359 95.7897 6.09117 99.8008 6.09117C102.273 6.09117 103.742 6.93 104.955 8.11835L103.112 10.2387C102.086 9.33 101.06 8.77078 99.7542 8.77078C97.5387 8.77078 95.9529 10.6116 95.9529 12.8484V12.895C95.9529 15.1319 97.5154 16.996 99.7542 16.996C101.27 16.996 102.18 16.3902 103.206 15.4582ZM117.338 16.8562V19.396H107.38V6.32418H117.245V8.88728H110.225V11.5436H116.405V14.1067H110.225V16.8562H117.338ZM10.3428 0.94165L3.99957 4.5999L6.33164 5.95136L10.3428 3.64456L14.3539 5.95136L16.686 4.5999L10.3428 0.94165ZM14.3539 7.86204L16.686 9.2135V11.9164L12.6748 14.2232V18.8368L10.3428 20.1883L8.01072 18.8368V14.2232L3.99957 11.9164V9.2135L6.33164 7.86204L10.3428 10.1688L14.3539 7.86204ZM16.686 13.8271V16.53L14.3539 17.8815V15.1785L16.686 13.8271ZM14.3306 19.7921L18.3418 17.4853V12.8717L20.6738 11.5203V18.8368L14.3306 22.495V19.7921ZM18.3418 8.25815L16.0097 6.9067L18.3418 5.55524L20.6738 6.9067V9.60961L18.3418 10.9611V8.25815ZM8.01072 23.4737V20.7708L10.3428 22.1222L12.6748 20.7708V23.4737L10.3428 24.8251L8.01072 23.4737ZM6.33164 17.8815L3.99957 16.53V13.8271L6.33164 15.1785V17.8815ZM10.3428 8.25815L8.01072 6.9067L10.3428 5.55524L12.6748 6.9067L10.3428 8.25815ZM4.67585 6.9067L2.34378 8.25815V10.9611L0.0117188 9.60961V6.9067L2.34378 5.55524L4.67585 6.9067ZM0.0117188 11.5203L2.34378 12.8717V17.4853L6.35493 19.7921V22.495L0.0117188 18.8368V11.5203ZM124.882 13.0064C124.882 16.7811 127.727 19.7636 131.552 19.7636C134.024 19.7636 135.516 18.8549 136.869 17.4336L135.4 15.9423C134.28 16.9908 133.254 17.6433 131.645 17.6433C129.15 17.6433 127.331 15.5462 127.331 12.9598C127.331 10.3734 129.127 8.32287 131.645 8.32287C133.138 8.32287 134.257 8.9753 135.307 9.95394L136.776 8.25297C135.516 7.06462 134.071 6.22578 131.645 6.22578C127.681 6.22578 124.882 9.27821 124.882 13.0064ZM141.183 19.5306V14.0083H147.433V19.5306H149.742V6.43549H147.433V11.8879H141.183V6.43549H138.875V19.5306H141.183ZM162.802 19.5306H165.227L159.42 6.34229H157.298L151.538 19.5306H153.893L155.246 16.3617H161.449L162.802 19.5306ZM156.109 14.3345L158.347 9.0918L160.609 14.3345H156.109ZM169.401 19.5306V6.43549H167.093V19.5306H169.401ZM184.023 6.43549H181.761H181.738V15.4763L174.718 6.43549H172.596V19.5306H174.858V10.2102L182.088 19.5306H184.023V6.43549Z"/>
</svg>
